M48
; DRILL file {KiCad 9.0.8} date 2026-05-04T15:45:37+0800
; FORMAT={-:-/ absolute / metric / decimal}
; #@! TF.CreationDate,2026-05-04T15:45:37+08:00
; #@! TF.GenerationSoftware,Kicad,Pcbnew,9.0.8
; #@! TF.FileFunction,Plated,1,2,PTH
FMAT,2
METRIC
; #@! TA.AperFunction,Plated,PTH,ViaDrill
T1C0.381
; #@! TA.AperFunction,Plated,PTH,ComponentDrill
T2C0.800
; #@! TA.AperFunction,Plated,PTH,ComponentDrill
T3C0.900
; #@! TA.AperFunction,Plated,PTH,ComponentDrill
T4C1.000
; #@! TA.AperFunction,Plated,PTH,ComponentDrill
T5C1.300
%
G90
G05
T1
X131.09Y-110.45
X141.8Y-73.1
X143.3Y-43.7
X143.3Y-56.4
X143.3Y-59.2
X151.9Y-67.4
X153.6Y-63.5
X164.65Y-65.825
X166.3Y-90.3
X167.6Y-83.2
X167.951Y-66.651
X169.765Y-63.765
X169.8Y-43.7
X169.8Y-58.8
X173.6Y-47.0
X188.5Y-56.06
X204.6Y-83.0
X204.6Y-88.9
X210.6Y-68.6
X220.0Y-90.2
T2
X135.92Y-92.63
X135.92Y-107.87
X138.46Y-92.63
X138.46Y-107.87
X141.0Y-92.63
X141.0Y-107.87
X143.54Y-92.63
X143.54Y-107.87
X146.08Y-92.63
X146.08Y-107.87
X192.63Y-51.01
X192.63Y-66.25
X195.17Y-51.01
X195.17Y-66.25
X197.71Y-51.01
X197.71Y-66.25
X200.25Y-51.01
X200.25Y-66.25
X202.79Y-51.01
X202.79Y-66.25
T3
X126.46Y-95.25
X126.46Y-105.5
X129.0Y-95.25
X129.0Y-105.5
X153.21Y-110.5
X153.235Y-100.25
X153.25Y-90.25
X155.75Y-110.5
X155.775Y-100.25
X155.79Y-90.25
X183.46Y-48.5
X183.46Y-58.5
X183.46Y-68.75
X186.0Y-48.5
X186.0Y-58.5
X186.0Y-68.75
X209.985Y-53.5
X209.985Y-63.75
X212.525Y-53.5
X212.525Y-63.75
T4
X146.21Y-57.75
X146.21Y-60.29
X146.25Y-71.5
X146.25Y-74.04
X148.75Y-57.75
X148.75Y-60.29
X148.79Y-71.5
X148.79Y-74.04
X151.29Y-57.75
X151.29Y-60.29
X151.33Y-71.5
X151.33Y-74.04
X153.83Y-57.75
X153.83Y-60.29
X153.84Y-46.96
X153.84Y-49.5
X153.87Y-71.5
X153.87Y-74.04
X156.37Y-57.75
X156.37Y-60.29
X156.38Y-46.96
X156.38Y-49.5
X156.41Y-71.5
X156.41Y-74.04
X158.91Y-57.75
X158.91Y-60.29
X158.92Y-46.96
X158.92Y-49.5
X158.95Y-71.5
X158.95Y-74.04
X161.45Y-57.75
X161.45Y-60.29
X161.46Y-46.96
X161.46Y-49.5
X161.49Y-71.5
X161.49Y-74.04
X163.99Y-57.75
X163.99Y-60.29
X164.0Y-46.96
X164.0Y-49.5
X164.03Y-71.5
X164.03Y-74.04
X178.0Y-90.75
X178.0Y-93.25
X178.0Y-95.75
X193.5Y-90.75
X193.5Y-93.25
X193.5Y-95.75
X207.5Y-96.0
X212.5Y-96.0
T5
X124.25Y-49.95
X129.25Y-49.95
M30
