%TF.GenerationSoftware,KiCad,Pcbnew,9.0.8*%
%TF.CreationDate,2026-05-04T15:45:16+08:00*%
%TF.ProjectId,Traffic Light Controller,54726166-6669-4632-904c-696768742043,rev?*%
%TF.SameCoordinates,Original*%
%TF.FileFunction,Legend,Bot*%
%TF.FilePolarity,Positive*%
%FSLAX46Y46*%
G04 Gerber Fmt 4.6, Leading zero omitted, Abs format (unit mm)*
G04 Created by KiCad (PCBNEW 9.0.8) date 2026-05-04 15:45:16*
%MOMM*%
%LPD*%
G01*
G04 APERTURE LIST*
%ADD10C,0.010000*%
G04 APERTURE END LIST*
D10*
%TO.C,REF\u002A\u002A*%
X182983678Y-116296039D02*
X183035351Y-116327575D01*
X183088891Y-116370929D01*
X183088891Y-117671622D01*
X183035351Y-117714976D01*
X182972350Y-117750081D01*
X182900430Y-117751760D01*
X182837272Y-117710591D01*
X182829485Y-117701219D01*
X182818504Y-117682199D01*
X182810052Y-117654714D01*
X182803801Y-117613492D01*
X182799422Y-117553265D01*
X182796588Y-117468761D01*
X182794970Y-117354710D01*
X182794240Y-117205844D01*
X182794069Y-117016891D01*
X182794069Y-116370929D01*
X182847608Y-116327575D01*
X182895246Y-116297903D01*
X182941480Y-116284222D01*
X182983678Y-116296039D01*
G36*
X182983678Y-116296039D02*
G01*
X183035351Y-116327575D01*
X183088891Y-116370929D01*
X183088891Y-117671622D01*
X183035351Y-117714976D01*
X182972350Y-117750081D01*
X182900430Y-117751760D01*
X182837272Y-117710591D01*
X182829485Y-117701219D01*
X182818504Y-117682199D01*
X182810052Y-117654714D01*
X182803801Y-117613492D01*
X182799422Y-117553265D01*
X182796588Y-117468761D01*
X182794970Y-117354710D01*
X182794240Y-117205844D01*
X182794069Y-117016891D01*
X182794069Y-116370929D01*
X182847608Y-116327575D01*
X182895246Y-116297903D01*
X182941480Y-116284222D01*
X182983678Y-116296039D01*
G37*
X197308807Y-116293054D02*
X197377421Y-116339887D01*
X197433087Y-116395553D01*
X197433087Y-117024452D01*
X197433005Y-117193263D01*
X197432485Y-117342369D01*
X197431138Y-117456380D01*
X197428571Y-117540697D01*
X197424395Y-117600718D01*
X197418218Y-117641844D01*
X197409650Y-117669473D01*
X197398300Y-117689006D01*
X197383777Y-117705840D01*
X197320569Y-117748960D01*
X197249924Y-117752509D01*
X197183623Y-117712972D01*
X197172962Y-117701182D01*
X197162014Y-117682933D01*
X197153645Y-117656131D01*
X197147509Y-117615519D01*
X197143262Y-117555838D01*
X197140559Y-117471830D01*
X197139055Y-117358239D01*
X197138406Y-117209807D01*
X197138266Y-117021275D01*
X197138345Y-116869277D01*
X197138857Y-116712763D01*
X197140151Y-116592207D01*
X197142570Y-116502353D01*
X197146460Y-116437942D01*
X197152166Y-116393717D01*
X197160032Y-116364420D01*
X197170402Y-116344793D01*
X197183623Y-116329579D01*
X197242250Y-116291367D01*
X197308807Y-116293054D01*
G36*
X197308807Y-116293054D02*
G01*
X197377421Y-116339887D01*
X197433087Y-116395553D01*
X197433087Y-117024452D01*
X197433005Y-117193263D01*
X197432485Y-117342369D01*
X197431138Y-117456380D01*
X197428571Y-117540697D01*
X197424395Y-117600718D01*
X197418218Y-117641844D01*
X197409650Y-117669473D01*
X197398300Y-117689006D01*
X197383777Y-117705840D01*
X197320569Y-117748960D01*
X197249924Y-117752509D01*
X197183623Y-117712972D01*
X197172962Y-117701182D01*
X197162014Y-117682933D01*
X197153645Y-117656131D01*
X197147509Y-117615519D01*
X197143262Y-117555838D01*
X197140559Y-117471830D01*
X197139055Y-117358239D01*
X197138406Y-117209807D01*
X197138266Y-117021275D01*
X197138345Y-116869277D01*
X197138857Y-116712763D01*
X197140151Y-116592207D01*
X197142570Y-116502353D01*
X197146460Y-116437942D01*
X197152166Y-116393717D01*
X197160032Y-116364420D01*
X197170402Y-116344793D01*
X197183623Y-116329579D01*
X197242250Y-116291367D01*
X197308807Y-116293054D01*
G37*
X197365293Y-103452240D02*
X197575206Y-103503672D01*
X197774180Y-103595982D01*
X197955945Y-103729186D01*
X198114231Y-103903296D01*
X198242766Y-104118329D01*
X198277226Y-104194080D01*
X198305143Y-104270859D01*
X198320807Y-104347615D01*
X198327673Y-104442554D01*
X198329195Y-104573880D01*
X198328275Y-104683186D01*
X198322732Y-104783641D01*
X198309142Y-104862016D01*
X198284110Y-104936311D01*
X198244245Y-105024525D01*
X198232713Y-105048033D01*
X198096408Y-105263289D01*
X197924974Y-105440396D01*
X197723278Y-105575197D01*
X197496184Y-105663536D01*
X197379660Y-105688188D01*
X197143268Y-105699723D01*
X196914307Y-105662398D01*
X196699491Y-105580039D01*
X196505535Y-105456473D01*
X196339151Y-105295528D01*
X196207055Y-105101030D01*
X196115960Y-104876805D01*
X196082631Y-104693311D01*
X196079628Y-104490817D01*
X196106735Y-104293849D01*
X196162661Y-104123235D01*
X196227280Y-104001257D01*
X196371136Y-103807731D01*
X196541678Y-103654995D01*
X196732635Y-103543063D01*
X196937737Y-103471950D01*
X197150714Y-103441671D01*
X197365293Y-103452240D01*
G36*
X197365293Y-103452240D02*
G01*
X197575206Y-103503672D01*
X197774180Y-103595982D01*
X197955945Y-103729186D01*
X198114231Y-103903296D01*
X198242766Y-104118329D01*
X198277226Y-104194080D01*
X198305143Y-104270859D01*
X198320807Y-104347615D01*
X198327673Y-104442554D01*
X198329195Y-104573880D01*
X198328275Y-104683186D01*
X198322732Y-104783641D01*
X198309142Y-104862016D01*
X198284110Y-104936311D01*
X198244245Y-105024525D01*
X198232713Y-105048033D01*
X198096408Y-105263289D01*
X197924974Y-105440396D01*
X197723278Y-105575197D01*
X197496184Y-105663536D01*
X197379660Y-105688188D01*
X197143268Y-105699723D01*
X196914307Y-105662398D01*
X196699491Y-105580039D01*
X196505535Y-105456473D01*
X196339151Y-105295528D01*
X196207055Y-105101030D01*
X196115960Y-104876805D01*
X196082631Y-104693311D01*
X196079628Y-104490817D01*
X196106735Y-104293849D01*
X196162661Y-104123235D01*
X196227280Y-104001257D01*
X196371136Y-103807731D01*
X196541678Y-103654995D01*
X196732635Y-103543063D01*
X196937737Y-103471950D01*
X197150714Y-103441671D01*
X197365293Y-103452240D01*
G37*
X181578155Y-116284225D02*
X181767241Y-116284405D01*
X181916935Y-116285088D01*
X182032261Y-116286578D01*
X182118243Y-116289180D01*
X182179903Y-116293201D01*
X182222265Y-116298946D01*
X182250353Y-116306721D01*
X182269191Y-116316830D01*
X182283801Y-116329579D01*
X182321581Y-116395306D01*
X182324487Y-116470796D01*
X182291626Y-116537570D01*
X182288893Y-116540490D01*
X182266387Y-116557285D01*
X182232030Y-116568445D01*
X182177448Y-116575062D01*
X182094271Y-116578230D01*
X181974126Y-116579043D01*
X181694158Y-116579043D01*
X181694158Y-117108931D01*
X181694007Y-117261264D01*
X181693187Y-117395192D01*
X181691214Y-117495204D01*
X181687606Y-117567359D01*
X181681879Y-117617715D01*
X181673550Y-117652331D01*
X181662136Y-117677264D01*
X181647155Y-117698574D01*
X181642553Y-117704211D01*
X181579919Y-117749698D01*
X181510854Y-117752840D01*
X181444694Y-117712972D01*
X181430675Y-117696748D01*
X181419682Y-117675457D01*
X181411606Y-117643629D01*
X181405999Y-117595462D01*
X181402415Y-117525151D01*
X181400407Y-117426895D01*
X181399530Y-117294888D01*
X181399337Y-117123329D01*
X181399337Y-116579043D01*
X181106162Y-116579043D01*
X181083863Y-116579041D01*
X180970323Y-116578589D01*
X180892287Y-116576301D01*
X180841276Y-116570676D01*
X180808808Y-116560216D01*
X180786405Y-116543418D01*
X180765586Y-116518783D01*
X180733750Y-116457134D01*
X180739982Y-116389271D01*
X180791499Y-116323909D01*
X180801425Y-116316441D01*
X180821936Y-116306726D01*
X180852925Y-116299166D01*
X180899374Y-116293496D01*
X180966267Y-116289451D01*
X181058585Y-116286766D01*
X181181312Y-116285176D01*
X181339430Y-116284416D01*
X181537921Y-116284222D01*
X181578155Y-116284225D01*
G36*
X181578155Y-116284225D02*
G01*
X181767241Y-116284405D01*
X181916935Y-116285088D01*
X182032261Y-116286578D01*
X182118243Y-116289180D01*
X182179903Y-116293201D01*
X182222265Y-116298946D01*
X182250353Y-116306721D01*
X182269191Y-116316830D01*
X182283801Y-116329579D01*
X182321581Y-116395306D01*
X182324487Y-116470796D01*
X182291626Y-116537570D01*
X182288893Y-116540490D01*
X182266387Y-116557285D01*
X182232030Y-116568445D01*
X182177448Y-116575062D01*
X182094271Y-116578230D01*
X181974126Y-116579043D01*
X181694158Y-116579043D01*
X181694158Y-117108931D01*
X181694007Y-117261264D01*
X181693187Y-117395192D01*
X181691214Y-117495204D01*
X181687606Y-117567359D01*
X181681879Y-117617715D01*
X181673550Y-117652331D01*
X181662136Y-117677264D01*
X181647155Y-117698574D01*
X181642553Y-117704211D01*
X181579919Y-117749698D01*
X181510854Y-117752840D01*
X181444694Y-117712972D01*
X181430675Y-117696748D01*
X181419682Y-117675457D01*
X181411606Y-117643629D01*
X181405999Y-117595462D01*
X181402415Y-117525151D01*
X181400407Y-117426895D01*
X181399530Y-117294888D01*
X181399337Y-117123329D01*
X181399337Y-116579043D01*
X181106162Y-116579043D01*
X181083863Y-116579041D01*
X180970323Y-116578589D01*
X180892287Y-116576301D01*
X180841276Y-116570676D01*
X180808808Y-116560216D01*
X180786405Y-116543418D01*
X180765586Y-116518783D01*
X180733750Y-116457134D01*
X180739982Y-116389271D01*
X180791499Y-116323909D01*
X180801425Y-116316441D01*
X180821936Y-116306726D01*
X180852925Y-116299166D01*
X180899374Y-116293496D01*
X180966267Y-116289451D01*
X181058585Y-116286766D01*
X181181312Y-116285176D01*
X181339430Y-116284416D01*
X181537921Y-116284222D01*
X181578155Y-116284225D01*
G37*
X180220051Y-116329579D02*
X180231366Y-116342015D01*
X180241593Y-116358499D01*
X180249802Y-116382158D01*
X180256186Y-116417232D01*
X180260940Y-116467965D01*
X180264256Y-116538599D01*
X180266328Y-116633377D01*
X180267349Y-116756541D01*
X180267512Y-116912334D01*
X180267011Y-117104998D01*
X180266039Y-117338775D01*
X180265902Y-117367252D01*
X180264724Y-117491328D01*
X180262068Y-117579084D01*
X180256954Y-117638107D01*
X180248405Y-117675983D01*
X180235445Y-117700299D01*
X180217094Y-117718641D01*
X180149881Y-117753631D01*
X180079672Y-117747802D01*
X180017590Y-117698574D01*
X179999491Y-117672050D01*
X179984522Y-117634814D01*
X179975747Y-117582524D01*
X179971619Y-117505088D01*
X179970587Y-117392413D01*
X179970587Y-117146008D01*
X178972730Y-117146008D01*
X178972730Y-117416864D01*
X178972583Y-117488766D01*
X178971051Y-117581839D01*
X178966679Y-117643181D01*
X178958047Y-117681411D01*
X178943736Y-117705152D01*
X178922327Y-117723025D01*
X178857536Y-117753299D01*
X178786648Y-117747941D01*
X178724912Y-117698574D01*
X178715559Y-117686009D01*
X178703635Y-117664866D01*
X178694532Y-117636883D01*
X178687871Y-117596555D01*
X178683273Y-117538382D01*
X178680356Y-117456861D01*
X178678743Y-117346489D01*
X178678054Y-117201765D01*
X178677908Y-117017186D01*
X178677908Y-116395553D01*
X178733574Y-116339887D01*
X178796611Y-116295203D01*
X178863366Y-116289800D01*
X178927373Y-116329579D01*
X178944018Y-116349207D01*
X178958908Y-116381133D01*
X178967622Y-116429282D01*
X178971712Y-116503357D01*
X178972730Y-116613061D01*
X178972730Y-116851186D01*
X179970587Y-116851186D01*
X179970587Y-116623370D01*
X179970588Y-116619128D01*
X179971467Y-116515272D01*
X179975412Y-116445914D01*
X179984484Y-116400561D01*
X180000744Y-116368716D01*
X180026253Y-116339887D01*
X180089290Y-116295203D01*
X180156044Y-116289800D01*
X180220051Y-116329579D01*
G36*
X180220051Y-116329579D02*
G01*
X180231366Y-116342015D01*
X180241593Y-116358499D01*
X180249802Y-116382158D01*
X180256186Y-116417232D01*
X180260940Y-116467965D01*
X180264256Y-116538599D01*
X180266328Y-116633377D01*
X180267349Y-116756541D01*
X180267512Y-116912334D01*
X180267011Y-117104998D01*
X180266039Y-117338775D01*
X180265902Y-117367252D01*
X180264724Y-117491328D01*
X180262068Y-117579084D01*
X180256954Y-117638107D01*
X180248405Y-117675983D01*
X180235445Y-117700299D01*
X180217094Y-117718641D01*
X180149881Y-117753631D01*
X180079672Y-117747802D01*
X180017590Y-117698574D01*
X179999491Y-117672050D01*
X179984522Y-117634814D01*
X179975747Y-117582524D01*
X179971619Y-117505088D01*
X179970587Y-117392413D01*
X179970587Y-117146008D01*
X178972730Y-117146008D01*
X178972730Y-117416864D01*
X178972583Y-117488766D01*
X178971051Y-117581839D01*
X178966679Y-117643181D01*
X178958047Y-117681411D01*
X178943736Y-117705152D01*
X178922327Y-117723025D01*
X178857536Y-117753299D01*
X178786648Y-117747941D01*
X178724912Y-117698574D01*
X178715559Y-117686009D01*
X178703635Y-117664866D01*
X178694532Y-117636883D01*
X178687871Y-117596555D01*
X178683273Y-117538382D01*
X178680356Y-117456861D01*
X178678743Y-117346489D01*
X178678054Y-117201765D01*
X178677908Y-117017186D01*
X178677908Y-116395553D01*
X178733574Y-116339887D01*
X178796611Y-116295203D01*
X178863366Y-116289800D01*
X178927373Y-116329579D01*
X178944018Y-116349207D01*
X178958908Y-116381133D01*
X178967622Y-116429282D01*
X178971712Y-116503357D01*
X178972730Y-116613061D01*
X178972730Y-116851186D01*
X179970587Y-116851186D01*
X179970587Y-116623370D01*
X179970588Y-116619128D01*
X179971467Y-116515272D01*
X179975412Y-116445914D01*
X179984484Y-116400561D01*
X180000744Y-116368716D01*
X180026253Y-116339887D01*
X180089290Y-116295203D01*
X180156044Y-116289800D01*
X180220051Y-116329579D01*
G37*
X189672862Y-117512339D02*
X189668906Y-117578188D01*
X189663022Y-117624235D01*
X189654832Y-117655979D01*
X189643955Y-117678925D01*
X189630012Y-117698574D01*
X189583009Y-117758329D01*
X189250146Y-117757136D01*
X189180244Y-117756537D01*
X188982398Y-117749645D01*
X188819752Y-117734212D01*
X188684964Y-117708985D01*
X188570689Y-117672714D01*
X188469586Y-117624148D01*
X188462839Y-117620297D01*
X188346699Y-117546533D01*
X188261613Y-117472271D01*
X188195687Y-117384912D01*
X188137027Y-117271855D01*
X188128425Y-117252539D01*
X188083068Y-117125603D01*
X188071548Y-117034086D01*
X188371371Y-117034086D01*
X188382646Y-117083764D01*
X188394150Y-117115661D01*
X188460303Y-117236013D01*
X188555403Y-117327928D01*
X188683503Y-117394494D01*
X188848655Y-117438800D01*
X188854268Y-117439809D01*
X188947252Y-117451787D01*
X189060548Y-117460280D01*
X189170913Y-117463508D01*
X189359516Y-117463508D01*
X189359516Y-116579043D01*
X189183757Y-116579943D01*
X189049320Y-116584918D01*
X188863699Y-116607521D01*
X188704361Y-116646774D01*
X188579858Y-116700963D01*
X188517702Y-116742605D01*
X188461211Y-116802403D01*
X188414324Y-116887638D01*
X188400006Y-116919713D01*
X188376253Y-116985006D01*
X188371371Y-117034086D01*
X188071548Y-117034086D01*
X188069064Y-117014352D01*
X188086344Y-116903808D01*
X188134843Y-116778989D01*
X188136442Y-116775588D01*
X188217706Y-116636125D01*
X188319527Y-116522422D01*
X188445538Y-116432889D01*
X188599374Y-116365934D01*
X188784667Y-116319969D01*
X189005052Y-116293401D01*
X189264163Y-116284640D01*
X189271338Y-116284630D01*
X189391915Y-116284911D01*
X189476150Y-116286993D01*
X189532629Y-116292204D01*
X189569932Y-116301872D01*
X189596645Y-116317324D01*
X189621350Y-116339887D01*
X189677016Y-116395553D01*
X189677016Y-117017186D01*
X189676965Y-117140947D01*
X189676512Y-117299221D01*
X189675271Y-117421184D01*
X189674152Y-117463508D01*
X189672862Y-117512339D01*
G36*
X189672862Y-117512339D02*
G01*
X189668906Y-117578188D01*
X189663022Y-117624235D01*
X189654832Y-117655979D01*
X189643955Y-117678925D01*
X189630012Y-117698574D01*
X189583009Y-117758329D01*
X189250146Y-117757136D01*
X189180244Y-117756537D01*
X188982398Y-117749645D01*
X188819752Y-117734212D01*
X188684964Y-117708985D01*
X188570689Y-117672714D01*
X188469586Y-117624148D01*
X188462839Y-117620297D01*
X188346699Y-117546533D01*
X188261613Y-117472271D01*
X188195687Y-117384912D01*
X188137027Y-117271855D01*
X188128425Y-117252539D01*
X188083068Y-117125603D01*
X188071548Y-117034086D01*
X188371371Y-117034086D01*
X188382646Y-117083764D01*
X188394150Y-117115661D01*
X188460303Y-117236013D01*
X188555403Y-117327928D01*
X188683503Y-117394494D01*
X188848655Y-117438800D01*
X188854268Y-117439809D01*
X188947252Y-117451787D01*
X189060548Y-117460280D01*
X189170913Y-117463508D01*
X189359516Y-117463508D01*
X189359516Y-116579043D01*
X189183757Y-116579943D01*
X189049320Y-116584918D01*
X188863699Y-116607521D01*
X188704361Y-116646774D01*
X188579858Y-116700963D01*
X188517702Y-116742605D01*
X188461211Y-116802403D01*
X188414324Y-116887638D01*
X188400006Y-116919713D01*
X188376253Y-116985006D01*
X188371371Y-117034086D01*
X188071548Y-117034086D01*
X188069064Y-117014352D01*
X188086344Y-116903808D01*
X188134843Y-116778989D01*
X188136442Y-116775588D01*
X188217706Y-116636125D01*
X188319527Y-116522422D01*
X188445538Y-116432889D01*
X188599374Y-116365934D01*
X188784667Y-116319969D01*
X189005052Y-116293401D01*
X189264163Y-116284640D01*
X189271338Y-116284630D01*
X189391915Y-116284911D01*
X189476150Y-116286993D01*
X189532629Y-116292204D01*
X189569932Y-116301872D01*
X189596645Y-116317324D01*
X189621350Y-116339887D01*
X189677016Y-116395553D01*
X189677016Y-117017186D01*
X189676965Y-117140947D01*
X189676512Y-117299221D01*
X189675271Y-117421184D01*
X189674152Y-117463508D01*
X189672862Y-117512339D01*
G37*
X203919550Y-116656597D02*
X203919658Y-116818546D01*
X203919158Y-117021275D01*
X203919079Y-117173273D01*
X203918567Y-117329788D01*
X203917273Y-117450343D01*
X203914854Y-117540198D01*
X203910964Y-117604609D01*
X203905258Y-117648834D01*
X203897393Y-117678131D01*
X203887022Y-117697758D01*
X203873801Y-117712972D01*
X203859805Y-117725495D01*
X203833693Y-117740161D01*
X203795226Y-117749710D01*
X203736155Y-117755210D01*
X203648233Y-117757727D01*
X203523210Y-117758329D01*
X203424880Y-117757575D01*
X203210207Y-117748678D01*
X203030955Y-117728413D01*
X202880691Y-117695089D01*
X202752981Y-117647015D01*
X202641392Y-117582500D01*
X202539490Y-117499856D01*
X202527460Y-117488098D01*
X202453397Y-117390648D01*
X202390920Y-117268488D01*
X202347763Y-117139428D01*
X202337154Y-117061595D01*
X202632903Y-117061595D01*
X202669630Y-117163920D01*
X202729236Y-117256164D01*
X202823047Y-117341362D01*
X202946373Y-117401233D01*
X203105373Y-117439675D01*
X203108366Y-117440154D01*
X203206745Y-117451789D01*
X203324657Y-117460107D01*
X203437239Y-117463336D01*
X203624337Y-117463508D01*
X203624337Y-116579043D01*
X203471257Y-116579014D01*
X203465174Y-116579033D01*
X203362478Y-116582979D01*
X203241736Y-116592472D01*
X203127812Y-116605587D01*
X203027450Y-116624262D01*
X202877279Y-116677033D01*
X202761747Y-116755982D01*
X202678375Y-116862525D01*
X202635751Y-116965515D01*
X202632903Y-117061595D01*
X202337154Y-117061595D01*
X202331658Y-117021275D01*
X202334228Y-116978653D01*
X202358962Y-116863309D01*
X202404221Y-116742952D01*
X202462942Y-116634371D01*
X202528064Y-116554354D01*
X202567322Y-116520156D01*
X202677234Y-116441431D01*
X202798379Y-116380903D01*
X202937389Y-116336786D01*
X203100899Y-116307291D01*
X203295542Y-116290634D01*
X203527953Y-116285026D01*
X203607270Y-116284220D01*
X203699100Y-116283390D01*
X203771021Y-116287015D01*
X203825444Y-116299635D01*
X203864783Y-116325792D01*
X203891451Y-116370026D01*
X203907859Y-116436877D01*
X203916422Y-116530888D01*
X203917621Y-116579043D01*
X203919550Y-116656597D01*
G36*
X203919550Y-116656597D02*
G01*
X203919658Y-116818546D01*
X203919158Y-117021275D01*
X203919079Y-117173273D01*
X203918567Y-117329788D01*
X203917273Y-117450343D01*
X203914854Y-117540198D01*
X203910964Y-117604609D01*
X203905258Y-117648834D01*
X203897393Y-117678131D01*
X203887022Y-117697758D01*
X203873801Y-117712972D01*
X203859805Y-117725495D01*
X203833693Y-117740161D01*
X203795226Y-117749710D01*
X203736155Y-117755210D01*
X203648233Y-117757727D01*
X203523210Y-117758329D01*
X203424880Y-117757575D01*
X203210207Y-117748678D01*
X203030955Y-117728413D01*
X202880691Y-117695089D01*
X202752981Y-117647015D01*
X202641392Y-117582500D01*
X202539490Y-117499856D01*
X202527460Y-117488098D01*
X202453397Y-117390648D01*
X202390920Y-117268488D01*
X202347763Y-117139428D01*
X202337154Y-117061595D01*
X202632903Y-117061595D01*
X202669630Y-117163920D01*
X202729236Y-117256164D01*
X202823047Y-117341362D01*
X202946373Y-117401233D01*
X203105373Y-117439675D01*
X203108366Y-117440154D01*
X203206745Y-117451789D01*
X203324657Y-117460107D01*
X203437239Y-117463336D01*
X203624337Y-117463508D01*
X203624337Y-116579043D01*
X203471257Y-116579014D01*
X203465174Y-116579033D01*
X203362478Y-116582979D01*
X203241736Y-116592472D01*
X203127812Y-116605587D01*
X203027450Y-116624262D01*
X202877279Y-116677033D01*
X202761747Y-116755982D01*
X202678375Y-116862525D01*
X202635751Y-116965515D01*
X202632903Y-117061595D01*
X202337154Y-117061595D01*
X202331658Y-117021275D01*
X202334228Y-116978653D01*
X202358962Y-116863309D01*
X202404221Y-116742952D01*
X202462942Y-116634371D01*
X202528064Y-116554354D01*
X202567322Y-116520156D01*
X202677234Y-116441431D01*
X202798379Y-116380903D01*
X202937389Y-116336786D01*
X203100899Y-116307291D01*
X203295542Y-116290634D01*
X203527953Y-116285026D01*
X203607270Y-116284220D01*
X203699100Y-116283390D01*
X203771021Y-116287015D01*
X203825444Y-116299635D01*
X203864783Y-116325792D01*
X203891451Y-116370026D01*
X203907859Y-116436877D01*
X203916422Y-116530888D01*
X203917621Y-116579043D01*
X203919550Y-116656597D01*
G37*
X193985551Y-116281861D02*
X194008468Y-116294191D01*
X194029659Y-116315609D01*
X194052334Y-116343977D01*
X194061279Y-116355952D01*
X194073330Y-116377036D01*
X194082530Y-116404810D01*
X194089262Y-116444797D01*
X194093912Y-116502522D01*
X194096860Y-116583509D01*
X194098492Y-116693281D01*
X194099190Y-116837362D01*
X194099337Y-117021275D01*
X194099291Y-117138858D01*
X194098852Y-117297740D01*
X194097629Y-117420168D01*
X194095237Y-117511669D01*
X194091293Y-117577764D01*
X194085414Y-117623978D01*
X194077217Y-117655835D01*
X194066318Y-117678859D01*
X194052334Y-117698574D01*
X193991205Y-117747578D01*
X193921007Y-117753363D01*
X193846716Y-117715012D01*
X193838310Y-117708030D01*
X193821885Y-117690899D01*
X193809710Y-117667694D01*
X193800906Y-117631870D01*
X193794594Y-117576881D01*
X193789898Y-117496183D01*
X193785938Y-117383230D01*
X193781837Y-117231476D01*
X193770498Y-116791258D01*
X193237551Y-117274688D01*
X193089224Y-117408837D01*
X192958283Y-117525588D01*
X192853428Y-117615905D01*
X192770913Y-117682043D01*
X192706991Y-117726255D01*
X192657916Y-117750794D01*
X192619943Y-117757917D01*
X192589326Y-117749875D01*
X192562317Y-117728924D01*
X192535173Y-117697317D01*
X192522626Y-117680274D01*
X192511313Y-117659025D01*
X192502853Y-117630582D01*
X192496923Y-117589495D01*
X192493196Y-117530311D01*
X192491350Y-117447580D01*
X192491058Y-117335850D01*
X192491996Y-117189670D01*
X192493839Y-117003588D01*
X192500498Y-116370871D01*
X192554037Y-116327546D01*
X192606400Y-116295019D01*
X192672410Y-116289452D01*
X192741780Y-116327527D01*
X192750442Y-116334728D01*
X192766779Y-116351864D01*
X192778891Y-116375151D01*
X192787652Y-116411122D01*
X192793935Y-116466309D01*
X192798615Y-116547246D01*
X192802564Y-116660463D01*
X192806658Y-116812494D01*
X192817998Y-117254156D01*
X193180855Y-116925105D01*
X193355105Y-116767136D01*
X193507325Y-116629739D01*
X193632153Y-116518546D01*
X193732796Y-116431418D01*
X193812465Y-116366214D01*
X193874366Y-116320796D01*
X193921708Y-116293024D01*
X193957701Y-116280759D01*
X193985551Y-116281861D01*
G36*
X193985551Y-116281861D02*
G01*
X194008468Y-116294191D01*
X194029659Y-116315609D01*
X194052334Y-116343977D01*
X194061279Y-116355952D01*
X194073330Y-116377036D01*
X194082530Y-116404810D01*
X194089262Y-116444797D01*
X194093912Y-116502522D01*
X194096860Y-116583509D01*
X194098492Y-116693281D01*
X194099190Y-116837362D01*
X194099337Y-117021275D01*
X194099291Y-117138858D01*
X194098852Y-117297740D01*
X194097629Y-117420168D01*
X194095237Y-117511669D01*
X194091293Y-117577764D01*
X194085414Y-117623978D01*
X194077217Y-117655835D01*
X194066318Y-117678859D01*
X194052334Y-117698574D01*
X193991205Y-117747578D01*
X193921007Y-117753363D01*
X193846716Y-117715012D01*
X193838310Y-117708030D01*
X193821885Y-117690899D01*
X193809710Y-117667694D01*
X193800906Y-117631870D01*
X193794594Y-117576881D01*
X193789898Y-117496183D01*
X193785938Y-117383230D01*
X193781837Y-117231476D01*
X193770498Y-116791258D01*
X193237551Y-117274688D01*
X193089224Y-117408837D01*
X192958283Y-117525588D01*
X192853428Y-117615905D01*
X192770913Y-117682043D01*
X192706991Y-117726255D01*
X192657916Y-117750794D01*
X192619943Y-117757917D01*
X192589326Y-117749875D01*
X192562317Y-117728924D01*
X192535173Y-117697317D01*
X192522626Y-117680274D01*
X192511313Y-117659025D01*
X192502853Y-117630582D01*
X192496923Y-117589495D01*
X192493196Y-117530311D01*
X192491350Y-117447580D01*
X192491058Y-117335850D01*
X192491996Y-117189670D01*
X192493839Y-117003588D01*
X192500498Y-116370871D01*
X192554037Y-116327546D01*
X192606400Y-116295019D01*
X192672410Y-116289452D01*
X192741780Y-116327527D01*
X192750442Y-116334728D01*
X192766779Y-116351864D01*
X192778891Y-116375151D01*
X192787652Y-116411122D01*
X192793935Y-116466309D01*
X192798615Y-116547246D01*
X192802564Y-116660463D01*
X192806658Y-116812494D01*
X192817998Y-117254156D01*
X193180855Y-116925105D01*
X193355105Y-116767136D01*
X193507325Y-116629739D01*
X193632153Y-116518546D01*
X193732796Y-116431418D01*
X193812465Y-116366214D01*
X193874366Y-116320796D01*
X193921708Y-116293024D01*
X193957701Y-116280759D01*
X193985551Y-116281861D01*
G37*
X195587183Y-116294492D02*
X195800142Y-116327268D01*
X195988605Y-116383621D01*
X196146899Y-116461781D01*
X196269352Y-116559981D01*
X196321725Y-116625998D01*
X196381004Y-116724835D01*
X196431773Y-116833032D01*
X196467229Y-116935823D01*
X196480569Y-117018440D01*
X196477436Y-117058046D01*
X196451437Y-117161169D01*
X196404904Y-117274727D01*
X196344854Y-117383042D01*
X196278301Y-117470438D01*
X196257817Y-117491227D01*
X196123047Y-117595239D01*
X195962081Y-117675380D01*
X195788891Y-117724401D01*
X195678471Y-117740698D01*
X195490731Y-117753966D01*
X195310369Y-117749773D01*
X195144653Y-117729191D01*
X195000848Y-117693291D01*
X194886223Y-117643145D01*
X194808042Y-117579822D01*
X194805279Y-117575853D01*
X194791040Y-117525176D01*
X194782525Y-117430252D01*
X194779694Y-117290704D01*
X194781422Y-117165683D01*
X194790903Y-117070495D01*
X194814387Y-117006002D01*
X194858120Y-116966722D01*
X194928350Y-116947175D01*
X195031324Y-116941877D01*
X195173288Y-116945349D01*
X195270963Y-116951400D01*
X195371803Y-116967858D01*
X195437081Y-116996090D01*
X195472154Y-117038751D01*
X195482383Y-117098496D01*
X195482169Y-117107619D01*
X195464687Y-117177518D01*
X195416454Y-117224561D01*
X195333555Y-117251079D01*
X195212078Y-117259400D01*
X195074516Y-117259400D01*
X195074516Y-117336447D01*
X195074617Y-117354799D01*
X195079078Y-117389455D01*
X195097695Y-117410135D01*
X195140647Y-117424072D01*
X195218114Y-117438501D01*
X195229111Y-117440377D01*
X195423878Y-117460272D01*
X195604664Y-117454408D01*
X195767202Y-117424816D01*
X195907222Y-117373527D01*
X196020455Y-117302571D01*
X196102632Y-117213979D01*
X196149484Y-117109782D01*
X196156741Y-116992011D01*
X196145654Y-116933963D01*
X196092049Y-116821685D01*
X195999259Y-116729958D01*
X195868716Y-116659975D01*
X195701851Y-116612929D01*
X195652282Y-116603992D01*
X195472827Y-116582899D01*
X195312499Y-116585369D01*
X195155617Y-116611355D01*
X195085016Y-116624994D01*
X194993735Y-116627039D01*
X194930826Y-116601864D01*
X194890339Y-116548051D01*
X194877514Y-116491304D01*
X194896572Y-116428577D01*
X194915313Y-116401607D01*
X194984087Y-116354334D01*
X195089801Y-116318431D01*
X195227446Y-116295335D01*
X195392016Y-116286483D01*
X195587183Y-116294492D01*
G36*
X195587183Y-116294492D02*
G01*
X195800142Y-116327268D01*
X195988605Y-116383621D01*
X196146899Y-116461781D01*
X196269352Y-116559981D01*
X196321725Y-116625998D01*
X196381004Y-116724835D01*
X196431773Y-116833032D01*
X196467229Y-116935823D01*
X196480569Y-117018440D01*
X196477436Y-117058046D01*
X196451437Y-117161169D01*
X196404904Y-117274727D01*
X196344854Y-117383042D01*
X196278301Y-117470438D01*
X196257817Y-117491227D01*
X196123047Y-117595239D01*
X195962081Y-117675380D01*
X195788891Y-117724401D01*
X195678471Y-117740698D01*
X195490731Y-117753966D01*
X195310369Y-117749773D01*
X195144653Y-117729191D01*
X195000848Y-117693291D01*
X194886223Y-117643145D01*
X194808042Y-117579822D01*
X194805279Y-117575853D01*
X194791040Y-117525176D01*
X194782525Y-117430252D01*
X194779694Y-117290704D01*
X194781422Y-117165683D01*
X194790903Y-117070495D01*
X194814387Y-117006002D01*
X194858120Y-116966722D01*
X194928350Y-116947175D01*
X195031324Y-116941877D01*
X195173288Y-116945349D01*
X195270963Y-116951400D01*
X195371803Y-116967858D01*
X195437081Y-116996090D01*
X195472154Y-117038751D01*
X195482383Y-117098496D01*
X195482169Y-117107619D01*
X195464687Y-117177518D01*
X195416454Y-117224561D01*
X195333555Y-117251079D01*
X195212078Y-117259400D01*
X195074516Y-117259400D01*
X195074516Y-117336447D01*
X195074617Y-117354799D01*
X195079078Y-117389455D01*
X195097695Y-117410135D01*
X195140647Y-117424072D01*
X195218114Y-117438501D01*
X195229111Y-117440377D01*
X195423878Y-117460272D01*
X195604664Y-117454408D01*
X195767202Y-117424816D01*
X195907222Y-117373527D01*
X196020455Y-117302571D01*
X196102632Y-117213979D01*
X196149484Y-117109782D01*
X196156741Y-116992011D01*
X196145654Y-116933963D01*
X196092049Y-116821685D01*
X195999259Y-116729958D01*
X195868716Y-116659975D01*
X195701851Y-116612929D01*
X195652282Y-116603992D01*
X195472827Y-116582899D01*
X195312499Y-116585369D01*
X195155617Y-116611355D01*
X195085016Y-116624994D01*
X194993735Y-116627039D01*
X194930826Y-116601864D01*
X194890339Y-116548051D01*
X194877514Y-116491304D01*
X194896572Y-116428577D01*
X194915313Y-116401607D01*
X194984087Y-116354334D01*
X195089801Y-116318431D01*
X195227446Y-116295335D01*
X195392016Y-116286483D01*
X195587183Y-116294492D01*
G37*
X191671084Y-116343977D02*
X191681026Y-116357404D01*
X191692767Y-116378641D01*
X191701729Y-116406940D01*
X191708286Y-116447772D01*
X191712812Y-116506607D01*
X191715681Y-116588917D01*
X191717267Y-116700171D01*
X191717944Y-116845841D01*
X191718087Y-117031397D01*
X191718029Y-117163819D01*
X191717563Y-117321153D01*
X191716316Y-117442226D01*
X191713920Y-117532423D01*
X191710009Y-117597127D01*
X191704213Y-117641722D01*
X191696165Y-117671593D01*
X191685499Y-117692123D01*
X191671846Y-117708695D01*
X191662776Y-117718052D01*
X191646243Y-117731083D01*
X191623422Y-117740950D01*
X191588732Y-117748092D01*
X191536590Y-117752950D01*
X191461417Y-117755963D01*
X191357631Y-117757571D01*
X191219649Y-117758213D01*
X191041893Y-117758329D01*
X191002368Y-117758316D01*
X190827540Y-117757781D01*
X190691632Y-117756242D01*
X190589268Y-117753401D01*
X190515075Y-117748958D01*
X190463678Y-117742614D01*
X190429703Y-117734069D01*
X190407776Y-117723025D01*
X190386698Y-117702964D01*
X190360057Y-117640453D01*
X190362433Y-117568355D01*
X190394906Y-117504981D01*
X190399304Y-117500408D01*
X190416757Y-117487816D01*
X190443560Y-117478443D01*
X190485713Y-117471821D01*
X190549218Y-117467483D01*
X190640076Y-117464963D01*
X190764287Y-117463794D01*
X190927852Y-117463508D01*
X191423266Y-117463508D01*
X191423266Y-117146008D01*
X191096939Y-117146008D01*
X191025283Y-117145846D01*
X190913245Y-117144244D01*
X190834620Y-117140217D01*
X190781476Y-117132902D01*
X190745883Y-117121434D01*
X190719908Y-117104950D01*
X190712589Y-117098554D01*
X190675610Y-117036327D01*
X190674336Y-116963330D01*
X190709571Y-116895792D01*
X190709695Y-116895654D01*
X190729123Y-116878324D01*
X190755829Y-116866159D01*
X190797428Y-116858261D01*
X190861536Y-116853732D01*
X190955766Y-116851673D01*
X191087734Y-116851186D01*
X191425529Y-116851186D01*
X191418728Y-116720784D01*
X191411926Y-116590383D01*
X190925610Y-116584249D01*
X190875354Y-116583590D01*
X190711386Y-116580618D01*
X190586191Y-116575828D01*
X190494557Y-116567802D01*
X190431271Y-116555118D01*
X190391122Y-116536357D01*
X190368898Y-116510098D01*
X190359385Y-116474920D01*
X190357373Y-116429404D01*
X190357385Y-116424652D01*
X190359703Y-116384411D01*
X190369341Y-116352685D01*
X190391053Y-116328464D01*
X190429593Y-116310739D01*
X190489717Y-116298501D01*
X190576178Y-116290740D01*
X190693731Y-116286446D01*
X190847130Y-116284609D01*
X191041130Y-116284222D01*
X191624081Y-116284222D01*
X191671084Y-116343977D01*
G36*
X191671084Y-116343977D02*
G01*
X191681026Y-116357404D01*
X191692767Y-116378641D01*
X191701729Y-116406940D01*
X191708286Y-116447772D01*
X191712812Y-116506607D01*
X191715681Y-116588917D01*
X191717267Y-116700171D01*
X191717944Y-116845841D01*
X191718087Y-117031397D01*
X191718029Y-117163819D01*
X191717563Y-117321153D01*
X191716316Y-117442226D01*
X191713920Y-117532423D01*
X191710009Y-117597127D01*
X191704213Y-117641722D01*
X191696165Y-117671593D01*
X191685499Y-117692123D01*
X191671846Y-117708695D01*
X191662776Y-117718052D01*
X191646243Y-117731083D01*
X191623422Y-117740950D01*
X191588732Y-117748092D01*
X191536590Y-117752950D01*
X191461417Y-117755963D01*
X191357631Y-117757571D01*
X191219649Y-117758213D01*
X191041893Y-117758329D01*
X191002368Y-117758316D01*
X190827540Y-117757781D01*
X190691632Y-117756242D01*
X190589268Y-117753401D01*
X190515075Y-117748958D01*
X190463678Y-117742614D01*
X190429703Y-117734069D01*
X190407776Y-117723025D01*
X190386698Y-117702964D01*
X190360057Y-117640453D01*
X190362433Y-117568355D01*
X190394906Y-117504981D01*
X190399304Y-117500408D01*
X190416757Y-117487816D01*
X190443560Y-117478443D01*
X190485713Y-117471821D01*
X190549218Y-117467483D01*
X190640076Y-117464963D01*
X190764287Y-117463794D01*
X190927852Y-117463508D01*
X191423266Y-117463508D01*
X191423266Y-117146008D01*
X191096939Y-117146008D01*
X191025283Y-117145846D01*
X190913245Y-117144244D01*
X190834620Y-117140217D01*
X190781476Y-117132902D01*
X190745883Y-117121434D01*
X190719908Y-117104950D01*
X190712589Y-117098554D01*
X190675610Y-117036327D01*
X190674336Y-116963330D01*
X190709571Y-116895792D01*
X190709695Y-116895654D01*
X190729123Y-116878324D01*
X190755829Y-116866159D01*
X190797428Y-116858261D01*
X190861536Y-116853732D01*
X190955766Y-116851673D01*
X191087734Y-116851186D01*
X191425529Y-116851186D01*
X191418728Y-116720784D01*
X191411926Y-116590383D01*
X190925610Y-116584249D01*
X190875354Y-116583590D01*
X190711386Y-116580618D01*
X190586191Y-116575828D01*
X190494557Y-116567802D01*
X190431271Y-116555118D01*
X190391122Y-116536357D01*
X190368898Y-116510098D01*
X190359385Y-116474920D01*
X190357373Y-116429404D01*
X190357385Y-116424652D01*
X190359703Y-116384411D01*
X190369341Y-116352685D01*
X190391053Y-116328464D01*
X190429593Y-116310739D01*
X190489717Y-116298501D01*
X190576178Y-116290740D01*
X190693731Y-116286446D01*
X190847130Y-116284609D01*
X191041130Y-116284222D01*
X191624081Y-116284222D01*
X191671084Y-116343977D01*
G37*
X201066704Y-116284254D02*
X201221586Y-116284640D01*
X201340005Y-116285815D01*
X201427568Y-116288208D01*
X201489882Y-116292251D01*
X201532557Y-116298374D01*
X201561198Y-116307009D01*
X201581414Y-116318584D01*
X201598813Y-116333532D01*
X201602398Y-116336909D01*
X201616951Y-116352054D01*
X201628285Y-116370170D01*
X201636804Y-116396556D01*
X201642909Y-116436509D01*
X201647002Y-116495328D01*
X201649486Y-116578311D01*
X201650763Y-116690757D01*
X201651234Y-116837963D01*
X201651301Y-117025229D01*
X201651228Y-117171457D01*
X201650729Y-117328507D01*
X201649450Y-117449473D01*
X201647045Y-117539632D01*
X201643166Y-117604259D01*
X201637464Y-117648630D01*
X201629592Y-117678022D01*
X201619201Y-117697711D01*
X201605944Y-117712972D01*
X201599246Y-117719354D01*
X201582126Y-117731630D01*
X201558015Y-117741021D01*
X201521432Y-117747912D01*
X201466895Y-117752688D01*
X201388925Y-117755733D01*
X201282041Y-117757431D01*
X201140761Y-117758169D01*
X200959605Y-117758329D01*
X200875011Y-117758305D01*
X200711993Y-117757940D01*
X200586451Y-117756829D01*
X200492903Y-117754588D01*
X200425870Y-117750832D01*
X200379871Y-117745177D01*
X200349424Y-117737239D01*
X200329049Y-117726632D01*
X200313266Y-117712972D01*
X200283682Y-117669580D01*
X200267908Y-117610918D01*
X200278955Y-117562892D01*
X200313266Y-117508865D01*
X200323268Y-117499608D01*
X200342906Y-117486977D01*
X200371263Y-117477686D01*
X200414445Y-117471224D01*
X200478559Y-117467085D01*
X200569710Y-117464758D01*
X200694006Y-117463735D01*
X200857551Y-117463508D01*
X201356480Y-117463508D01*
X201356480Y-117146008D01*
X201032687Y-117146008D01*
X200960731Y-117145716D01*
X200828897Y-117142255D01*
X200733993Y-117133345D01*
X200670240Y-117117064D01*
X200631857Y-117091489D01*
X200613066Y-117054697D01*
X200608087Y-117004766D01*
X200609689Y-116964073D01*
X200620240Y-116920227D01*
X200645942Y-116889387D01*
X200692830Y-116869307D01*
X200766937Y-116857743D01*
X200874299Y-116852451D01*
X201020948Y-116851186D01*
X201358743Y-116851186D01*
X201351942Y-116720784D01*
X201345141Y-116590383D01*
X200847496Y-116584258D01*
X200721755Y-116582493D01*
X200584222Y-116579591D01*
X200481959Y-116575712D01*
X200409129Y-116570388D01*
X200359896Y-116563149D01*
X200328425Y-116553527D01*
X200308880Y-116541056D01*
X200296796Y-116528193D01*
X200270662Y-116464547D01*
X200277815Y-116392856D01*
X200317542Y-116330462D01*
X200324074Y-116324590D01*
X200342114Y-116311830D01*
X200366430Y-116302082D01*
X200402603Y-116294942D01*
X200456217Y-116290006D01*
X200532856Y-116286869D01*
X200638103Y-116285129D01*
X200777539Y-116284381D01*
X200956750Y-116284222D01*
X201066704Y-116284254D01*
G36*
X201066704Y-116284254D02*
G01*
X201221586Y-116284640D01*
X201340005Y-116285815D01*
X201427568Y-116288208D01*
X201489882Y-116292251D01*
X201532557Y-116298374D01*
X201561198Y-116307009D01*
X201581414Y-116318584D01*
X201598813Y-116333532D01*
X201602398Y-116336909D01*
X201616951Y-116352054D01*
X201628285Y-116370170D01*
X201636804Y-116396556D01*
X201642909Y-116436509D01*
X201647002Y-116495328D01*
X201649486Y-116578311D01*
X201650763Y-116690757D01*
X201651234Y-116837963D01*
X201651301Y-117025229D01*
X201651228Y-117171457D01*
X201650729Y-117328507D01*
X201649450Y-117449473D01*
X201647045Y-117539632D01*
X201643166Y-117604259D01*
X201637464Y-117648630D01*
X201629592Y-117678022D01*
X201619201Y-117697711D01*
X201605944Y-117712972D01*
X201599246Y-117719354D01*
X201582126Y-117731630D01*
X201558015Y-117741021D01*
X201521432Y-117747912D01*
X201466895Y-117752688D01*
X201388925Y-117755733D01*
X201282041Y-117757431D01*
X201140761Y-117758169D01*
X200959605Y-117758329D01*
X200875011Y-117758305D01*
X200711993Y-117757940D01*
X200586451Y-117756829D01*
X200492903Y-117754588D01*
X200425870Y-117750832D01*
X200379871Y-117745177D01*
X200349424Y-117737239D01*
X200329049Y-117726632D01*
X200313266Y-117712972D01*
X200283682Y-117669580D01*
X200267908Y-117610918D01*
X200278955Y-117562892D01*
X200313266Y-117508865D01*
X200323268Y-117499608D01*
X200342906Y-117486977D01*
X200371263Y-117477686D01*
X200414445Y-117471224D01*
X200478559Y-117467085D01*
X200569710Y-117464758D01*
X200694006Y-117463735D01*
X200857551Y-117463508D01*
X201356480Y-117463508D01*
X201356480Y-117146008D01*
X201032687Y-117146008D01*
X200960731Y-117145716D01*
X200828897Y-117142255D01*
X200733993Y-117133345D01*
X200670240Y-117117064D01*
X200631857Y-117091489D01*
X200613066Y-117054697D01*
X200608087Y-117004766D01*
X200609689Y-116964073D01*
X200620240Y-116920227D01*
X200645942Y-116889387D01*
X200692830Y-116869307D01*
X200766937Y-116857743D01*
X200874299Y-116852451D01*
X201020948Y-116851186D01*
X201358743Y-116851186D01*
X201351942Y-116720784D01*
X201345141Y-116590383D01*
X200847496Y-116584258D01*
X200721755Y-116582493D01*
X200584222Y-116579591D01*
X200481959Y-116575712D01*
X200409129Y-116570388D01*
X200359896Y-116563149D01*
X200328425Y-116553527D01*
X200308880Y-116541056D01*
X200296796Y-116528193D01*
X200270662Y-116464547D01*
X200277815Y-116392856D01*
X200317542Y-116330462D01*
X200324074Y-116324590D01*
X200342114Y-116311830D01*
X200366430Y-116302082D01*
X200402603Y-116294942D01*
X200456217Y-116290006D01*
X200532856Y-116286869D01*
X200638103Y-116285129D01*
X200777539Y-116284381D01*
X200956750Y-116284222D01*
X201066704Y-116284254D01*
G37*
X183856149Y-116303129D02*
X183892230Y-116340316D01*
X183933615Y-116402757D01*
X183983501Y-116494535D01*
X184045085Y-116619736D01*
X184121564Y-116782445D01*
X184150962Y-116845492D01*
X184210725Y-116972422D01*
X184263148Y-117082122D01*
X184305324Y-117168599D01*
X184334347Y-117225860D01*
X184347310Y-117247912D01*
X184350040Y-117246745D01*
X184370113Y-117218726D01*
X184404849Y-117159386D01*
X184450245Y-117075781D01*
X184502293Y-116974964D01*
X184534381Y-116911706D01*
X184592539Y-116800504D01*
X184637717Y-116722122D01*
X184674311Y-116670940D01*
X184706717Y-116641338D01*
X184739331Y-116627698D01*
X184776549Y-116624400D01*
X184797648Y-116625355D01*
X184830024Y-116633807D01*
X184860789Y-116655631D01*
X184894133Y-116696358D01*
X184934249Y-116761517D01*
X184985328Y-116856641D01*
X185051562Y-116987258D01*
X185071114Y-117025940D01*
X185120248Y-117119694D01*
X185160900Y-117192342D01*
X185189291Y-117237319D01*
X185201644Y-117248061D01*
X185204391Y-117241490D01*
X185223223Y-117199484D01*
X185257096Y-117125277D01*
X185303133Y-117025129D01*
X185358461Y-116905301D01*
X185420206Y-116772052D01*
X185473874Y-116657100D01*
X185533385Y-116532569D01*
X185579733Y-116440681D01*
X185615851Y-116376313D01*
X185644673Y-116334340D01*
X185669134Y-116309636D01*
X185692169Y-116297078D01*
X185711072Y-116291267D01*
X185761507Y-116290969D01*
X185816034Y-116321791D01*
X185818647Y-116323769D01*
X185863012Y-116369243D01*
X185885208Y-116413891D01*
X185885301Y-116415176D01*
X185876178Y-116450658D01*
X185850335Y-116520098D01*
X185810641Y-116617220D01*
X185759967Y-116735746D01*
X185701183Y-116869399D01*
X185637159Y-117011903D01*
X185570766Y-117156981D01*
X185504874Y-117298355D01*
X185442353Y-117429749D01*
X185386074Y-117544885D01*
X185338907Y-117637487D01*
X185303722Y-117701278D01*
X185283389Y-117729981D01*
X185214267Y-117756838D01*
X185130500Y-117744058D01*
X185119723Y-117734622D01*
X185087924Y-117690122D01*
X185043322Y-117616273D01*
X184990252Y-117520412D01*
X184933050Y-117409878D01*
X184772791Y-117089969D01*
X184625763Y-117384462D01*
X184606285Y-117423215D01*
X184552087Y-117528378D01*
X184503815Y-117618357D01*
X184466119Y-117684621D01*
X184443647Y-117718641D01*
X184441345Y-117721139D01*
X184384853Y-117751849D01*
X184314415Y-117755231D01*
X184252056Y-117729981D01*
X184247182Y-117724257D01*
X184222552Y-117682822D01*
X184182902Y-117607385D01*
X184130861Y-117503266D01*
X184069062Y-117375786D01*
X184000134Y-117230264D01*
X183926709Y-117072022D01*
X183886047Y-116983381D01*
X183812173Y-116821205D01*
X183755006Y-116693280D01*
X183712769Y-116594974D01*
X183683685Y-116521657D01*
X183665978Y-116468697D01*
X183657871Y-116431466D01*
X183657586Y-116405330D01*
X183663348Y-116385661D01*
X183692793Y-116343710D01*
X183746235Y-116302926D01*
X183747754Y-116302238D01*
X183787108Y-116288174D01*
X183822174Y-116287110D01*
X183856149Y-116303129D01*
G36*
X183856149Y-116303129D02*
G01*
X183892230Y-116340316D01*
X183933615Y-116402757D01*
X183983501Y-116494535D01*
X184045085Y-116619736D01*
X184121564Y-116782445D01*
X184150962Y-116845492D01*
X184210725Y-116972422D01*
X184263148Y-117082122D01*
X184305324Y-117168599D01*
X184334347Y-117225860D01*
X184347310Y-117247912D01*
X184350040Y-117246745D01*
X184370113Y-117218726D01*
X184404849Y-117159386D01*
X184450245Y-117075781D01*
X184502293Y-116974964D01*
X184534381Y-116911706D01*
X184592539Y-116800504D01*
X184637717Y-116722122D01*
X184674311Y-116670940D01*
X184706717Y-116641338D01*
X184739331Y-116627698D01*
X184776549Y-116624400D01*
X184797648Y-116625355D01*
X184830024Y-116633807D01*
X184860789Y-116655631D01*
X184894133Y-116696358D01*
X184934249Y-116761517D01*
X184985328Y-116856641D01*
X185051562Y-116987258D01*
X185071114Y-117025940D01*
X185120248Y-117119694D01*
X185160900Y-117192342D01*
X185189291Y-117237319D01*
X185201644Y-117248061D01*
X185204391Y-117241490D01*
X185223223Y-117199484D01*
X185257096Y-117125277D01*
X185303133Y-117025129D01*
X185358461Y-116905301D01*
X185420206Y-116772052D01*
X185473874Y-116657100D01*
X185533385Y-116532569D01*
X185579733Y-116440681D01*
X185615851Y-116376313D01*
X185644673Y-116334340D01*
X185669134Y-116309636D01*
X185692169Y-116297078D01*
X185711072Y-116291267D01*
X185761507Y-116290969D01*
X185816034Y-116321791D01*
X185818647Y-116323769D01*
X185863012Y-116369243D01*
X185885208Y-116413891D01*
X185885301Y-116415176D01*
X185876178Y-116450658D01*
X185850335Y-116520098D01*
X185810641Y-116617220D01*
X185759967Y-116735746D01*
X185701183Y-116869399D01*
X185637159Y-117011903D01*
X185570766Y-117156981D01*
X185504874Y-117298355D01*
X185442353Y-117429749D01*
X185386074Y-117544885D01*
X185338907Y-117637487D01*
X185303722Y-117701278D01*
X185283389Y-117729981D01*
X185214267Y-117756838D01*
X185130500Y-117744058D01*
X185119723Y-117734622D01*
X185087924Y-117690122D01*
X185043322Y-117616273D01*
X184990252Y-117520412D01*
X184933050Y-117409878D01*
X184772791Y-117089969D01*
X184625763Y-117384462D01*
X184606285Y-117423215D01*
X184552087Y-117528378D01*
X184503815Y-117618357D01*
X184466119Y-117684621D01*
X184443647Y-117718641D01*
X184441345Y-117721139D01*
X184384853Y-117751849D01*
X184314415Y-117755231D01*
X184252056Y-117729981D01*
X184247182Y-117724257D01*
X184222552Y-117682822D01*
X184182902Y-117607385D01*
X184130861Y-117503266D01*
X184069062Y-117375786D01*
X184000134Y-117230264D01*
X183926709Y-117072022D01*
X183886047Y-116983381D01*
X183812173Y-116821205D01*
X183755006Y-116693280D01*
X183712769Y-116594974D01*
X183683685Y-116521657D01*
X183665978Y-116468697D01*
X183657871Y-116431466D01*
X183657586Y-116405330D01*
X183663348Y-116385661D01*
X183692793Y-116343710D01*
X183746235Y-116302926D01*
X183747754Y-116302238D01*
X183787108Y-116288174D01*
X183822174Y-116287110D01*
X183856149Y-116303129D01*
G37*
X199025872Y-116285968D02*
X199158956Y-116296876D01*
X199270051Y-116316158D01*
X199372271Y-116346013D01*
X199515532Y-116412574D01*
X199618302Y-116498320D01*
X199680224Y-116602914D01*
X199700944Y-116726018D01*
X199699062Y-116788794D01*
X199687425Y-116838610D01*
X199657679Y-116882143D01*
X199601484Y-116937088D01*
X199585456Y-116951811D01*
X199537826Y-116993804D01*
X199492838Y-117027897D01*
X199444556Y-117055928D01*
X199387044Y-117079736D01*
X199314368Y-117101159D01*
X199220590Y-117122035D01*
X199099777Y-117144202D01*
X198945991Y-117169499D01*
X198753297Y-117199765D01*
X198716405Y-117205860D01*
X198591189Y-117233223D01*
X198500350Y-117264830D01*
X198447548Y-117299125D01*
X198436441Y-117334551D01*
X198441706Y-117343130D01*
X198477730Y-117373394D01*
X198534233Y-117406811D01*
X198559946Y-117418846D01*
X198602733Y-117433295D01*
X198655741Y-117442892D01*
X198727749Y-117448555D01*
X198827539Y-117451202D01*
X198963891Y-117451752D01*
X198999619Y-117451605D01*
X199135465Y-117449373D01*
X199265922Y-117444903D01*
X199377670Y-117438743D01*
X199457385Y-117431442D01*
X199528725Y-117423269D01*
X199587491Y-117421696D01*
X199625461Y-117430936D01*
X199655823Y-117452382D01*
X199663168Y-117459600D01*
X199695998Y-117523431D01*
X199693347Y-117595058D01*
X199655263Y-117656568D01*
X199614340Y-117679884D01*
X199542052Y-117705387D01*
X199456826Y-117725576D01*
X199449893Y-117726779D01*
X199364174Y-117737259D01*
X199248888Y-117746045D01*
X199118274Y-117752248D01*
X198986569Y-117754978D01*
X198953959Y-117755062D01*
X198756457Y-117750085D01*
X198595638Y-117734001D01*
X198464697Y-117704808D01*
X198356825Y-117660503D01*
X198265217Y-117599083D01*
X198183066Y-117518545D01*
X198142644Y-117465859D01*
X198119288Y-117406500D01*
X198113444Y-117326712D01*
X198113727Y-117302668D01*
X198121508Y-117237013D01*
X198146387Y-117183724D01*
X198196942Y-117121752D01*
X198239555Y-117077274D01*
X198292583Y-117031981D01*
X198352283Y-116995082D01*
X198425064Y-116964434D01*
X198517339Y-116937892D01*
X198635518Y-116913313D01*
X198786011Y-116888552D01*
X198975230Y-116861465D01*
X199066258Y-116847383D01*
X199202774Y-116818135D01*
X199301484Y-116784989D01*
X199360883Y-116749033D01*
X199379466Y-116711356D01*
X199355728Y-116673046D01*
X199288164Y-116635191D01*
X199282045Y-116632752D01*
X199188913Y-116608488D01*
X199063053Y-116592014D01*
X198915529Y-116583656D01*
X198757407Y-116583742D01*
X198599750Y-116592598D01*
X198453623Y-116610550D01*
X198445734Y-116611853D01*
X198347665Y-116627336D01*
X198282874Y-116634592D01*
X198240692Y-116633391D01*
X198210450Y-116623505D01*
X198181480Y-116604704D01*
X198179130Y-116602956D01*
X198129877Y-116541937D01*
X198120248Y-116470617D01*
X198152002Y-116401146D01*
X198161134Y-116392193D01*
X198220627Y-116361779D01*
X198315010Y-116335416D01*
X198436156Y-116313720D01*
X198575941Y-116297309D01*
X198726239Y-116286802D01*
X198878925Y-116282816D01*
X199025872Y-116285968D01*
G36*
X199025872Y-116285968D02*
G01*
X199158956Y-116296876D01*
X199270051Y-116316158D01*
X199372271Y-116346013D01*
X199515532Y-116412574D01*
X199618302Y-116498320D01*
X199680224Y-116602914D01*
X199700944Y-116726018D01*
X199699062Y-116788794D01*
X199687425Y-116838610D01*
X199657679Y-116882143D01*
X199601484Y-116937088D01*
X199585456Y-116951811D01*
X199537826Y-116993804D01*
X199492838Y-117027897D01*
X199444556Y-117055928D01*
X199387044Y-117079736D01*
X199314368Y-117101159D01*
X199220590Y-117122035D01*
X199099777Y-117144202D01*
X198945991Y-117169499D01*
X198753297Y-117199765D01*
X198716405Y-117205860D01*
X198591189Y-117233223D01*
X198500350Y-117264830D01*
X198447548Y-117299125D01*
X198436441Y-117334551D01*
X198441706Y-117343130D01*
X198477730Y-117373394D01*
X198534233Y-117406811D01*
X198559946Y-117418846D01*
X198602733Y-117433295D01*
X198655741Y-117442892D01*
X198727749Y-117448555D01*
X198827539Y-117451202D01*
X198963891Y-117451752D01*
X198999619Y-117451605D01*
X199135465Y-117449373D01*
X199265922Y-117444903D01*
X199377670Y-117438743D01*
X199457385Y-117431442D01*
X199528725Y-117423269D01*
X199587491Y-117421696D01*
X199625461Y-117430936D01*
X199655823Y-117452382D01*
X199663168Y-117459600D01*
X199695998Y-117523431D01*
X199693347Y-117595058D01*
X199655263Y-117656568D01*
X199614340Y-117679884D01*
X199542052Y-117705387D01*
X199456826Y-117725576D01*
X199449893Y-117726779D01*
X199364174Y-117737259D01*
X199248888Y-117746045D01*
X199118274Y-117752248D01*
X198986569Y-117754978D01*
X198953959Y-117755062D01*
X198756457Y-117750085D01*
X198595638Y-117734001D01*
X198464697Y-117704808D01*
X198356825Y-117660503D01*
X198265217Y-117599083D01*
X198183066Y-117518545D01*
X198142644Y-117465859D01*
X198119288Y-117406500D01*
X198113444Y-117326712D01*
X198113727Y-117302668D01*
X198121508Y-117237013D01*
X198146387Y-117183724D01*
X198196942Y-117121752D01*
X198239555Y-117077274D01*
X198292583Y-117031981D01*
X198352283Y-116995082D01*
X198425064Y-116964434D01*
X198517339Y-116937892D01*
X198635518Y-116913313D01*
X198786011Y-116888552D01*
X198975230Y-116861465D01*
X199066258Y-116847383D01*
X199202774Y-116818135D01*
X199301484Y-116784989D01*
X199360883Y-116749033D01*
X199379466Y-116711356D01*
X199355728Y-116673046D01*
X199288164Y-116635191D01*
X199282045Y-116632752D01*
X199188913Y-116608488D01*
X199063053Y-116592014D01*
X198915529Y-116583656D01*
X198757407Y-116583742D01*
X198599750Y-116592598D01*
X198453623Y-116610550D01*
X198445734Y-116611853D01*
X198347665Y-116627336D01*
X198282874Y-116634592D01*
X198240692Y-116633391D01*
X198210450Y-116623505D01*
X198181480Y-116604704D01*
X198179130Y-116602956D01*
X198129877Y-116541937D01*
X198120248Y-116470617D01*
X198152002Y-116401146D01*
X198161134Y-116392193D01*
X198220627Y-116361779D01*
X198315010Y-116335416D01*
X198436156Y-116313720D01*
X198575941Y-116297309D01*
X198726239Y-116286802D01*
X198878925Y-116282816D01*
X199025872Y-116285968D01*
G37*
X191174428Y-105703066D02*
X191541445Y-105736759D01*
X191882404Y-105804709D01*
X192209989Y-105909776D01*
X192536880Y-106054820D01*
X192860467Y-106240010D01*
X193207739Y-106492472D01*
X193529778Y-106784366D01*
X193819491Y-107108466D01*
X194069787Y-107457546D01*
X194273576Y-107824381D01*
X194292074Y-107863624D01*
X194446990Y-108242410D01*
X194564704Y-108636011D01*
X194646737Y-109051948D01*
X194694610Y-109497740D01*
X194709844Y-109980905D01*
X194691321Y-110480373D01*
X194632529Y-110972252D01*
X194532555Y-111432706D01*
X194390504Y-111865001D01*
X194205482Y-112272404D01*
X193976594Y-112658181D01*
X193761593Y-112952911D01*
X193464721Y-113284530D01*
X193141145Y-113568572D01*
X192791005Y-113804945D01*
X192414444Y-113993555D01*
X192011602Y-114134311D01*
X191582623Y-114227118D01*
X191577727Y-114227841D01*
X191495116Y-114235090D01*
X191370450Y-114240466D01*
X191215260Y-114243720D01*
X191041070Y-114244600D01*
X190859410Y-114242855D01*
X190732092Y-114240298D01*
X190543190Y-114234376D01*
X190391820Y-114225897D01*
X190267061Y-114213957D01*
X190157998Y-114197652D01*
X190053711Y-114176075D01*
X189936380Y-114148192D01*
X189813967Y-114116439D01*
X189703257Y-114083129D01*
X189594202Y-114044359D01*
X189476754Y-113996228D01*
X189340866Y-113934835D01*
X189176489Y-113856278D01*
X188973576Y-113756655D01*
X188412367Y-113479307D01*
X188861860Y-112741002D01*
X188920707Y-112644371D01*
X189026431Y-112470906D01*
X189121060Y-112315827D01*
X189201136Y-112184791D01*
X189263201Y-112083454D01*
X189303796Y-112017473D01*
X189319463Y-111992504D01*
X189323821Y-111993250D01*
X189358923Y-112017685D01*
X189420592Y-112068397D01*
X189499084Y-112137518D01*
X189638873Y-112256943D01*
X189888427Y-112433542D01*
X190130553Y-112556653D01*
X190305520Y-112618132D01*
X190601464Y-112680963D01*
X190892237Y-112692100D01*
X191173623Y-112652301D01*
X191441405Y-112562326D01*
X191691368Y-112422934D01*
X191919293Y-112234881D01*
X192046119Y-112096374D01*
X192224790Y-111840184D01*
X192371398Y-111542889D01*
X192486642Y-111202966D01*
X192571226Y-110818892D01*
X192575063Y-110795049D01*
X192592792Y-110640508D01*
X192605990Y-110448495D01*
X192614550Y-110232128D01*
X192618366Y-110004528D01*
X192617330Y-109778815D01*
X192611337Y-109568110D01*
X192600279Y-109385532D01*
X192584048Y-109244203D01*
X192521839Y-108924061D01*
X192417164Y-108550093D01*
X192285518Y-108222690D01*
X192127077Y-107942105D01*
X191942017Y-107708591D01*
X191730515Y-107522402D01*
X191492746Y-107383791D01*
X191228886Y-107293011D01*
X191170345Y-107281744D01*
X191023637Y-107267032D01*
X190852186Y-107262230D01*
X190675200Y-107267073D01*
X190511886Y-107281299D01*
X190381453Y-107304643D01*
X190164167Y-107378974D01*
X189912011Y-107514674D01*
X189687487Y-107693253D01*
X189647859Y-107730871D01*
X189576054Y-107797426D01*
X189525305Y-107842223D01*
X189504688Y-107857124D01*
X189499612Y-107849997D01*
X189468368Y-107804996D01*
X189411924Y-107723284D01*
X189334010Y-107610274D01*
X189238354Y-107471376D01*
X189128687Y-107312001D01*
X189008738Y-107137559D01*
X188518119Y-106423820D01*
X188627720Y-106390982D01*
X188639157Y-106387261D01*
X188713606Y-106357705D01*
X188820942Y-106310045D01*
X188948569Y-106250016D01*
X189083892Y-106183349D01*
X189142859Y-106153873D01*
X189470297Y-106001699D01*
X189772093Y-105884023D01*
X190059854Y-105797835D01*
X190345187Y-105740125D01*
X190639700Y-105707883D01*
X190955001Y-105698098D01*
X191174428Y-105703066D01*
G36*
X191174428Y-105703066D02*
G01*
X191541445Y-105736759D01*
X191882404Y-105804709D01*
X192209989Y-105909776D01*
X192536880Y-106054820D01*
X192860467Y-106240010D01*
X193207739Y-106492472D01*
X193529778Y-106784366D01*
X193819491Y-107108466D01*
X194069787Y-107457546D01*
X194273576Y-107824381D01*
X194292074Y-107863624D01*
X194446990Y-108242410D01*
X194564704Y-108636011D01*
X194646737Y-109051948D01*
X194694610Y-109497740D01*
X194709844Y-109980905D01*
X194691321Y-110480373D01*
X194632529Y-110972252D01*
X194532555Y-111432706D01*
X194390504Y-111865001D01*
X194205482Y-112272404D01*
X193976594Y-112658181D01*
X193761593Y-112952911D01*
X193464721Y-113284530D01*
X193141145Y-113568572D01*
X192791005Y-113804945D01*
X192414444Y-113993555D01*
X192011602Y-114134311D01*
X191582623Y-114227118D01*
X191577727Y-114227841D01*
X191495116Y-114235090D01*
X191370450Y-114240466D01*
X191215260Y-114243720D01*
X191041070Y-114244600D01*
X190859410Y-114242855D01*
X190732092Y-114240298D01*
X190543190Y-114234376D01*
X190391820Y-114225897D01*
X190267061Y-114213957D01*
X190157998Y-114197652D01*
X190053711Y-114176075D01*
X189936380Y-114148192D01*
X189813967Y-114116439D01*
X189703257Y-114083129D01*
X189594202Y-114044359D01*
X189476754Y-113996228D01*
X189340866Y-113934835D01*
X189176489Y-113856278D01*
X188973576Y-113756655D01*
X188412367Y-113479307D01*
X188861860Y-112741002D01*
X188920707Y-112644371D01*
X189026431Y-112470906D01*
X189121060Y-112315827D01*
X189201136Y-112184791D01*
X189263201Y-112083454D01*
X189303796Y-112017473D01*
X189319463Y-111992504D01*
X189323821Y-111993250D01*
X189358923Y-112017685D01*
X189420592Y-112068397D01*
X189499084Y-112137518D01*
X189638873Y-112256943D01*
X189888427Y-112433542D01*
X190130553Y-112556653D01*
X190305520Y-112618132D01*
X190601464Y-112680963D01*
X190892237Y-112692100D01*
X191173623Y-112652301D01*
X191441405Y-112562326D01*
X191691368Y-112422934D01*
X191919293Y-112234881D01*
X192046119Y-112096374D01*
X192224790Y-111840184D01*
X192371398Y-111542889D01*
X192486642Y-111202966D01*
X192571226Y-110818892D01*
X192575063Y-110795049D01*
X192592792Y-110640508D01*
X192605990Y-110448495D01*
X192614550Y-110232128D01*
X192618366Y-110004528D01*
X192617330Y-109778815D01*
X192611337Y-109568110D01*
X192600279Y-109385532D01*
X192584048Y-109244203D01*
X192521839Y-108924061D01*
X192417164Y-108550093D01*
X192285518Y-108222690D01*
X192127077Y-107942105D01*
X191942017Y-107708591D01*
X191730515Y-107522402D01*
X191492746Y-107383791D01*
X191228886Y-107293011D01*
X191170345Y-107281744D01*
X191023637Y-107267032D01*
X190852186Y-107262230D01*
X190675200Y-107267073D01*
X190511886Y-107281299D01*
X190381453Y-107304643D01*
X190164167Y-107378974D01*
X189912011Y-107514674D01*
X189687487Y-107693253D01*
X189647859Y-107730871D01*
X189576054Y-107797426D01*
X189525305Y-107842223D01*
X189504688Y-107857124D01*
X189499612Y-107849997D01*
X189468368Y-107804996D01*
X189411924Y-107723284D01*
X189334010Y-107610274D01*
X189238354Y-107471376D01*
X189128687Y-107312001D01*
X189008738Y-107137559D01*
X188518119Y-106423820D01*
X188627720Y-106390982D01*
X188639157Y-106387261D01*
X188713606Y-106357705D01*
X188820942Y-106310045D01*
X188948569Y-106250016D01*
X189083892Y-106183349D01*
X189142859Y-106153873D01*
X189470297Y-106001699D01*
X189772093Y-105884023D01*
X190059854Y-105797835D01*
X190345187Y-105740125D01*
X190639700Y-105707883D01*
X190955001Y-105698098D01*
X191174428Y-105703066D01*
G37*
X182252470Y-111394151D02*
X182246675Y-111646897D01*
X182230104Y-111869796D01*
X182201475Y-112074973D01*
X182159504Y-112274551D01*
X182102909Y-112480654D01*
X182017087Y-112727010D01*
X181859463Y-113059578D01*
X181666115Y-113357457D01*
X181440001Y-113617832D01*
X181184079Y-113837886D01*
X180901306Y-114014806D01*
X180594640Y-114145775D01*
X180267040Y-114227979D01*
X180263098Y-114228638D01*
X180023682Y-114251675D01*
X179760627Y-114248600D01*
X179492686Y-114221310D01*
X179238619Y-114171701D01*
X179017180Y-114101667D01*
X178922662Y-114059049D01*
X178799562Y-113994273D01*
X178673068Y-113920186D01*
X178556380Y-113844943D01*
X178462696Y-113776697D01*
X178405216Y-113723604D01*
X178392021Y-113709028D01*
X178376290Y-113703933D01*
X178365776Y-113729228D01*
X178358028Y-113792979D01*
X178350592Y-113903248D01*
X178336937Y-114133020D01*
X177290917Y-114140174D01*
X176244897Y-114147327D01*
X176317274Y-114023826D01*
X176321588Y-114016524D01*
X176342635Y-113982247D01*
X176361728Y-113951710D01*
X176378970Y-113922262D01*
X176394465Y-113891249D01*
X176408314Y-113856018D01*
X176420621Y-113813917D01*
X176431488Y-113762293D01*
X176441018Y-113698492D01*
X176449313Y-113619862D01*
X176456477Y-113523750D01*
X176462613Y-113407504D01*
X176467822Y-113268469D01*
X176472208Y-113103993D01*
X176475873Y-112911424D01*
X176478921Y-112688108D01*
X176481453Y-112431392D01*
X176483573Y-112138625D01*
X176485384Y-111807151D01*
X176486987Y-111434320D01*
X176488487Y-111017477D01*
X176489985Y-110553970D01*
X176491585Y-110041147D01*
X176492994Y-109599812D01*
X178473496Y-109599812D01*
X178473496Y-112438911D01*
X178610055Y-112528482D01*
X178662570Y-112560749D01*
X178782818Y-112625208D01*
X178896829Y-112676539D01*
X178946759Y-112693919D01*
X179105632Y-112728616D01*
X179306506Y-112746334D01*
X179408651Y-112750021D01*
X179503466Y-112749183D01*
X179574046Y-112739713D01*
X179637353Y-112719015D01*
X179710347Y-112684491D01*
X179850627Y-112592012D01*
X179972155Y-112461192D01*
X180069435Y-112292608D01*
X180143390Y-112083616D01*
X180194947Y-111831573D01*
X180225031Y-111533838D01*
X180234568Y-111187768D01*
X180234104Y-111109090D01*
X180220393Y-110744547D01*
X180187100Y-110427345D01*
X180133416Y-110154137D01*
X180058529Y-109921577D01*
X179961631Y-109726317D01*
X179841912Y-109565012D01*
X179792244Y-109515782D01*
X179638316Y-109413219D01*
X179457620Y-109350807D01*
X179257984Y-109328902D01*
X179047235Y-109347857D01*
X178833201Y-109408029D01*
X178623711Y-109509771D01*
X178473496Y-109599812D01*
X176492994Y-109599812D01*
X176493388Y-109476353D01*
X176507044Y-105311299D01*
X177592689Y-105304158D01*
X177671639Y-105303677D01*
X177903926Y-105302724D01*
X178116387Y-105302530D01*
X178303224Y-105303057D01*
X178458636Y-105304264D01*
X178576824Y-105306112D01*
X178651990Y-105308561D01*
X178678334Y-105311572D01*
X178674964Y-105321114D01*
X178649822Y-105366351D01*
X178608180Y-105432137D01*
X178604026Y-105438427D01*
X178571739Y-105489221D01*
X178544668Y-105538642D01*
X178522354Y-105591780D01*
X178504338Y-105653726D01*
X178490160Y-105729571D01*
X178479362Y-105824405D01*
X178471484Y-105943318D01*
X178466068Y-106091402D01*
X178462655Y-106273747D01*
X178460785Y-106495443D01*
X178459999Y-106761582D01*
X178459840Y-107077253D01*
X178460126Y-107323713D01*
X178461002Y-107565680D01*
X178462405Y-107785079D01*
X178464272Y-107976568D01*
X178466538Y-108134804D01*
X178469140Y-108254445D01*
X178472014Y-108330147D01*
X178475097Y-108356568D01*
X178485040Y-108352467D01*
X178528749Y-108323590D01*
X178591172Y-108276164D01*
X178681669Y-108212386D01*
X178851698Y-108118413D01*
X179046036Y-108034588D01*
X179246541Y-107969401D01*
X179415001Y-107936161D01*
X179624809Y-107914972D01*
X179851879Y-107907631D01*
X180078688Y-107914147D01*
X180287715Y-107934528D01*
X180461434Y-107968784D01*
X180638319Y-108026488D01*
X180933406Y-108166374D01*
X181206634Y-108352343D01*
X181452963Y-108580113D01*
X181667353Y-108845402D01*
X181844762Y-109143928D01*
X181888806Y-109235469D01*
X182012232Y-109544243D01*
X182108729Y-109879363D01*
X182179515Y-110246734D01*
X182225811Y-110652264D01*
X182248835Y-111101862D01*
X182249904Y-111187768D01*
X182252470Y-111394151D01*
G36*
X182252470Y-111394151D02*
G01*
X182246675Y-111646897D01*
X182230104Y-111869796D01*
X182201475Y-112074973D01*
X182159504Y-112274551D01*
X182102909Y-112480654D01*
X182017087Y-112727010D01*
X181859463Y-113059578D01*
X181666115Y-113357457D01*
X181440001Y-113617832D01*
X181184079Y-113837886D01*
X180901306Y-114014806D01*
X180594640Y-114145775D01*
X180267040Y-114227979D01*
X180263098Y-114228638D01*
X180023682Y-114251675D01*
X179760627Y-114248600D01*
X179492686Y-114221310D01*
X179238619Y-114171701D01*
X179017180Y-114101667D01*
X178922662Y-114059049D01*
X178799562Y-113994273D01*
X178673068Y-113920186D01*
X178556380Y-113844943D01*
X178462696Y-113776697D01*
X178405216Y-113723604D01*
X178392021Y-113709028D01*
X178376290Y-113703933D01*
X178365776Y-113729228D01*
X178358028Y-113792979D01*
X178350592Y-113903248D01*
X178336937Y-114133020D01*
X177290917Y-114140174D01*
X176244897Y-114147327D01*
X176317274Y-114023826D01*
X176321588Y-114016524D01*
X176342635Y-113982247D01*
X176361728Y-113951710D01*
X176378970Y-113922262D01*
X176394465Y-113891249D01*
X176408314Y-113856018D01*
X176420621Y-113813917D01*
X176431488Y-113762293D01*
X176441018Y-113698492D01*
X176449313Y-113619862D01*
X176456477Y-113523750D01*
X176462613Y-113407504D01*
X176467822Y-113268469D01*
X176472208Y-113103993D01*
X176475873Y-112911424D01*
X176478921Y-112688108D01*
X176481453Y-112431392D01*
X176483573Y-112138625D01*
X176485384Y-111807151D01*
X176486987Y-111434320D01*
X176488487Y-111017477D01*
X176489985Y-110553970D01*
X176491585Y-110041147D01*
X176492994Y-109599812D01*
X178473496Y-109599812D01*
X178473496Y-112438911D01*
X178610055Y-112528482D01*
X178662570Y-112560749D01*
X178782818Y-112625208D01*
X178896829Y-112676539D01*
X178946759Y-112693919D01*
X179105632Y-112728616D01*
X179306506Y-112746334D01*
X179408651Y-112750021D01*
X179503466Y-112749183D01*
X179574046Y-112739713D01*
X179637353Y-112719015D01*
X179710347Y-112684491D01*
X179850627Y-112592012D01*
X179972155Y-112461192D01*
X180069435Y-112292608D01*
X180143390Y-112083616D01*
X180194947Y-111831573D01*
X180225031Y-111533838D01*
X180234568Y-111187768D01*
X180234104Y-111109090D01*
X180220393Y-110744547D01*
X180187100Y-110427345D01*
X180133416Y-110154137D01*
X180058529Y-109921577D01*
X179961631Y-109726317D01*
X179841912Y-109565012D01*
X179792244Y-109515782D01*
X179638316Y-109413219D01*
X179457620Y-109350807D01*
X179257984Y-109328902D01*
X179047235Y-109347857D01*
X178833201Y-109408029D01*
X178623711Y-109509771D01*
X178473496Y-109599812D01*
X176492994Y-109599812D01*
X176493388Y-109476353D01*
X176507044Y-105311299D01*
X177592689Y-105304158D01*
X177671639Y-105303677D01*
X177903926Y-105302724D01*
X178116387Y-105302530D01*
X178303224Y-105303057D01*
X178458636Y-105304264D01*
X178576824Y-105306112D01*
X178651990Y-105308561D01*
X178678334Y-105311572D01*
X178674964Y-105321114D01*
X178649822Y-105366351D01*
X178608180Y-105432137D01*
X178604026Y-105438427D01*
X178571739Y-105489221D01*
X178544668Y-105538642D01*
X178522354Y-105591780D01*
X178504338Y-105653726D01*
X178490160Y-105729571D01*
X178479362Y-105824405D01*
X178471484Y-105943318D01*
X178466068Y-106091402D01*
X178462655Y-106273747D01*
X178460785Y-106495443D01*
X178459999Y-106761582D01*
X178459840Y-107077253D01*
X178460126Y-107323713D01*
X178461002Y-107565680D01*
X178462405Y-107785079D01*
X178464272Y-107976568D01*
X178466538Y-108134804D01*
X178469140Y-108254445D01*
X178472014Y-108330147D01*
X178475097Y-108356568D01*
X178485040Y-108352467D01*
X178528749Y-108323590D01*
X178591172Y-108276164D01*
X178681669Y-108212386D01*
X178851698Y-108118413D01*
X179046036Y-108034588D01*
X179246541Y-107969401D01*
X179415001Y-107936161D01*
X179624809Y-107914972D01*
X179851879Y-107907631D01*
X180078688Y-107914147D01*
X180287715Y-107934528D01*
X180461434Y-107968784D01*
X180638319Y-108026488D01*
X180933406Y-108166374D01*
X181206634Y-108352343D01*
X181452963Y-108580113D01*
X181667353Y-108845402D01*
X181844762Y-109143928D01*
X181888806Y-109235469D01*
X182012232Y-109544243D01*
X182108729Y-109879363D01*
X182179515Y-110246734D01*
X182225811Y-110652264D01*
X182248835Y-111101862D01*
X182249904Y-111187768D01*
X182252470Y-111394151D01*
G37*
X188425846Y-112253570D02*
X188413580Y-112473784D01*
X188387070Y-112678682D01*
X188347068Y-112849364D01*
X188283240Y-113024970D01*
X188135287Y-113314367D01*
X187946172Y-113568982D01*
X187717854Y-113787080D01*
X187452290Y-113966925D01*
X187151439Y-114106782D01*
X186817259Y-114204917D01*
X186680989Y-114227051D01*
X186486261Y-114242433D01*
X186274189Y-114245893D01*
X186062496Y-114237708D01*
X185868902Y-114218157D01*
X185711130Y-114187520D01*
X185631850Y-114163399D01*
X185451793Y-114092812D01*
X185268760Y-114003195D01*
X185101636Y-113904266D01*
X184969304Y-113805744D01*
X184967678Y-113804322D01*
X184895162Y-113742837D01*
X184839370Y-113699056D01*
X184812261Y-113682375D01*
X184809297Y-113686357D01*
X184802591Y-113729377D01*
X184797930Y-113809613D01*
X184796184Y-113914525D01*
X184796184Y-114146676D01*
X183771990Y-114146676D01*
X183744726Y-114146671D01*
X183516061Y-114146271D01*
X183306193Y-114145276D01*
X183121093Y-114143759D01*
X182966732Y-114141795D01*
X182849082Y-114139457D01*
X182774113Y-114136821D01*
X182747797Y-114133960D01*
X182748410Y-114131460D01*
X182765627Y-114094554D01*
X182801718Y-114025217D01*
X182850216Y-113935949D01*
X182952635Y-113750654D01*
X182967653Y-111921261D01*
X184905431Y-111921261D01*
X184906193Y-112065798D01*
X184909884Y-112217666D01*
X184917115Y-112327439D01*
X184928412Y-112402263D01*
X184944302Y-112449287D01*
X184964742Y-112482866D01*
X185041718Y-112574401D01*
X185144856Y-112669695D01*
X185257898Y-112754602D01*
X185364587Y-112814975D01*
X185423781Y-112837127D01*
X185560079Y-112866620D01*
X185738095Y-112881699D01*
X185925780Y-112879415D01*
X186104008Y-112848400D01*
X186252773Y-112784327D01*
X186381482Y-112684309D01*
X186417689Y-112647314D01*
X186511958Y-112521148D01*
X186562963Y-112385159D01*
X186578281Y-112221526D01*
X186574131Y-112135078D01*
X186533092Y-111957116D01*
X186446879Y-111804368D01*
X186313920Y-111675116D01*
X186132647Y-111567641D01*
X185901491Y-111480224D01*
X185808302Y-111457283D01*
X185695486Y-111441575D01*
X185553507Y-111432852D01*
X185369732Y-111429919D01*
X185339879Y-111429921D01*
X185202393Y-111431599D01*
X185084293Y-111435656D01*
X184997323Y-111441559D01*
X184953227Y-111448776D01*
X184948153Y-111451119D01*
X184931747Y-111465832D01*
X184920128Y-111495398D01*
X184912491Y-111547772D01*
X184908033Y-111630905D01*
X184905947Y-111752750D01*
X184905431Y-111921261D01*
X182967653Y-111921261D01*
X182968442Y-111825170D01*
X182970791Y-111544724D01*
X182974078Y-111187053D01*
X182977528Y-110876543D01*
X182981420Y-110608804D01*
X182986032Y-110379442D01*
X182991645Y-110184068D01*
X182998535Y-110018289D01*
X183006982Y-109877715D01*
X183017266Y-109757953D01*
X183029663Y-109654614D01*
X183044454Y-109563305D01*
X183061916Y-109479635D01*
X183082329Y-109399213D01*
X183105972Y-109317647D01*
X183133122Y-109230547D01*
X183240082Y-108957490D01*
X183386559Y-108705128D01*
X183568977Y-108489068D01*
X183789005Y-108308178D01*
X184048313Y-108161328D01*
X184348572Y-108047389D01*
X184691451Y-107965228D01*
X185078621Y-107913717D01*
X185213942Y-107903474D01*
X185441844Y-107895984D01*
X185667731Y-107902729D01*
X185902178Y-107924844D01*
X186155761Y-107963468D01*
X186439055Y-108019737D01*
X186762635Y-108094789D01*
X186837430Y-108112948D01*
X187025260Y-108157634D01*
X187203285Y-108198779D01*
X187360710Y-108233953D01*
X187486739Y-108260725D01*
X187570574Y-108276665D01*
X187763996Y-108308434D01*
X187492069Y-108967501D01*
X187424051Y-109132055D01*
X187357136Y-109293296D01*
X187299723Y-109430961D01*
X187254631Y-109538316D01*
X187224678Y-109608624D01*
X187212682Y-109635149D01*
X187210796Y-109635529D01*
X187176035Y-109623686D01*
X187107682Y-109593337D01*
X187018069Y-109549884D01*
X186831811Y-109465261D01*
X186575508Y-109372735D01*
X186313183Y-109301878D01*
X186055093Y-109254469D01*
X185811499Y-109232289D01*
X185592658Y-109237116D01*
X185408829Y-109270730D01*
X185280529Y-109324066D01*
X185134820Y-109433368D01*
X185022652Y-109581649D01*
X184947236Y-109764349D01*
X184911784Y-109976904D01*
X184899299Y-110172805D01*
X185551021Y-110174589D01*
X185770806Y-110176432D01*
X186013904Y-110182977D01*
X186221576Y-110195330D01*
X186404564Y-110214691D01*
X186573611Y-110242261D01*
X186739459Y-110279242D01*
X186912850Y-110326833D01*
X187172286Y-110417420D01*
X187477436Y-110566598D01*
X187745245Y-110749327D01*
X187973070Y-110963038D01*
X188158270Y-111205160D01*
X188298203Y-111473123D01*
X188390229Y-111764358D01*
X188404641Y-111842795D01*
X188423117Y-112036940D01*
X188425443Y-112221526D01*
X188425846Y-112253570D01*
G36*
X188425846Y-112253570D02*
G01*
X188413580Y-112473784D01*
X188387070Y-112678682D01*
X188347068Y-112849364D01*
X188283240Y-113024970D01*
X188135287Y-113314367D01*
X187946172Y-113568982D01*
X187717854Y-113787080D01*
X187452290Y-113966925D01*
X187151439Y-114106782D01*
X186817259Y-114204917D01*
X186680989Y-114227051D01*
X186486261Y-114242433D01*
X186274189Y-114245893D01*
X186062496Y-114237708D01*
X185868902Y-114218157D01*
X185711130Y-114187520D01*
X185631850Y-114163399D01*
X185451793Y-114092812D01*
X185268760Y-114003195D01*
X185101636Y-113904266D01*
X184969304Y-113805744D01*
X184967678Y-113804322D01*
X184895162Y-113742837D01*
X184839370Y-113699056D01*
X184812261Y-113682375D01*
X184809297Y-113686357D01*
X184802591Y-113729377D01*
X184797930Y-113809613D01*
X184796184Y-113914525D01*
X184796184Y-114146676D01*
X183771990Y-114146676D01*
X183744726Y-114146671D01*
X183516061Y-114146271D01*
X183306193Y-114145276D01*
X183121093Y-114143759D01*
X182966732Y-114141795D01*
X182849082Y-114139457D01*
X182774113Y-114136821D01*
X182747797Y-114133960D01*
X182748410Y-114131460D01*
X182765627Y-114094554D01*
X182801718Y-114025217D01*
X182850216Y-113935949D01*
X182952635Y-113750654D01*
X182967653Y-111921261D01*
X184905431Y-111921261D01*
X184906193Y-112065798D01*
X184909884Y-112217666D01*
X184917115Y-112327439D01*
X184928412Y-112402263D01*
X184944302Y-112449287D01*
X184964742Y-112482866D01*
X185041718Y-112574401D01*
X185144856Y-112669695D01*
X185257898Y-112754602D01*
X185364587Y-112814975D01*
X185423781Y-112837127D01*
X185560079Y-112866620D01*
X185738095Y-112881699D01*
X185925780Y-112879415D01*
X186104008Y-112848400D01*
X186252773Y-112784327D01*
X186381482Y-112684309D01*
X186417689Y-112647314D01*
X186511958Y-112521148D01*
X186562963Y-112385159D01*
X186578281Y-112221526D01*
X186574131Y-112135078D01*
X186533092Y-111957116D01*
X186446879Y-111804368D01*
X186313920Y-111675116D01*
X186132647Y-111567641D01*
X185901491Y-111480224D01*
X185808302Y-111457283D01*
X185695486Y-111441575D01*
X185553507Y-111432852D01*
X185369732Y-111429919D01*
X185339879Y-111429921D01*
X185202393Y-111431599D01*
X185084293Y-111435656D01*
X184997323Y-111441559D01*
X184953227Y-111448776D01*
X184948153Y-111451119D01*
X184931747Y-111465832D01*
X184920128Y-111495398D01*
X184912491Y-111547772D01*
X184908033Y-111630905D01*
X184905947Y-111752750D01*
X184905431Y-111921261D01*
X182967653Y-111921261D01*
X182968442Y-111825170D01*
X182970791Y-111544724D01*
X182974078Y-111187053D01*
X182977528Y-110876543D01*
X182981420Y-110608804D01*
X182986032Y-110379442D01*
X182991645Y-110184068D01*
X182998535Y-110018289D01*
X183006982Y-109877715D01*
X183017266Y-109757953D01*
X183029663Y-109654614D01*
X183044454Y-109563305D01*
X183061916Y-109479635D01*
X183082329Y-109399213D01*
X183105972Y-109317647D01*
X183133122Y-109230547D01*
X183240082Y-108957490D01*
X183386559Y-108705128D01*
X183568977Y-108489068D01*
X183789005Y-108308178D01*
X184048313Y-108161328D01*
X184348572Y-108047389D01*
X184691451Y-107965228D01*
X185078621Y-107913717D01*
X185213942Y-107903474D01*
X185441844Y-107895984D01*
X185667731Y-107902729D01*
X185902178Y-107924844D01*
X186155761Y-107963468D01*
X186439055Y-108019737D01*
X186762635Y-108094789D01*
X186837430Y-108112948D01*
X187025260Y-108157634D01*
X187203285Y-108198779D01*
X187360710Y-108233953D01*
X187486739Y-108260725D01*
X187570574Y-108276665D01*
X187763996Y-108308434D01*
X187492069Y-108967501D01*
X187424051Y-109132055D01*
X187357136Y-109293296D01*
X187299723Y-109430961D01*
X187254631Y-109538316D01*
X187224678Y-109608624D01*
X187212682Y-109635149D01*
X187210796Y-109635529D01*
X187176035Y-109623686D01*
X187107682Y-109593337D01*
X187018069Y-109549884D01*
X186831811Y-109465261D01*
X186575508Y-109372735D01*
X186313183Y-109301878D01*
X186055093Y-109254469D01*
X185811499Y-109232289D01*
X185592658Y-109237116D01*
X185408829Y-109270730D01*
X185280529Y-109324066D01*
X185134820Y-109433368D01*
X185022652Y-109581649D01*
X184947236Y-109764349D01*
X184911784Y-109976904D01*
X184899299Y-110172805D01*
X185551021Y-110174589D01*
X185770806Y-110176432D01*
X186013904Y-110182977D01*
X186221576Y-110195330D01*
X186404564Y-110214691D01*
X186573611Y-110242261D01*
X186739459Y-110279242D01*
X186912850Y-110326833D01*
X187172286Y-110417420D01*
X187477436Y-110566598D01*
X187745245Y-110749327D01*
X187973070Y-110963038D01*
X188158270Y-111205160D01*
X188298203Y-111473123D01*
X188390229Y-111764358D01*
X188404641Y-111842795D01*
X188423117Y-112036940D01*
X188425443Y-112221526D01*
X188425846Y-112253570D01*
G37*
X206748440Y-114200659D02*
X206745628Y-114412454D01*
X206742138Y-114594895D01*
X206737898Y-114750241D01*
X206732838Y-114880750D01*
X206726887Y-114988680D01*
X206719973Y-115076291D01*
X206712026Y-115145839D01*
X206702973Y-115199585D01*
X206692745Y-115239785D01*
X206681270Y-115268700D01*
X206668477Y-115288586D01*
X206654295Y-115301703D01*
X206638653Y-115310309D01*
X206621480Y-115316663D01*
X206602705Y-115323022D01*
X206582256Y-115331646D01*
X206570750Y-115335968D01*
X206549645Y-115340687D01*
X206518284Y-115345011D01*
X206474451Y-115348957D01*
X206415927Y-115352542D01*
X206340493Y-115355784D01*
X206245930Y-115358700D01*
X206130020Y-115361307D01*
X205990545Y-115363622D01*
X205825287Y-115365663D01*
X205632026Y-115367447D01*
X205408545Y-115368992D01*
X205152625Y-115370315D01*
X204862047Y-115371433D01*
X204534593Y-115372364D01*
X204168044Y-115373124D01*
X203760183Y-115373732D01*
X203308790Y-115374204D01*
X202811648Y-115374559D01*
X202266537Y-115374812D01*
X201671240Y-115374982D01*
X201023537Y-115375086D01*
X200818282Y-115375106D01*
X200184636Y-115375119D01*
X199602749Y-115375040D01*
X199070428Y-115374851D01*
X198585481Y-115374538D01*
X198145715Y-115374085D01*
X197748940Y-115373475D01*
X197392961Y-115372693D01*
X197075587Y-115371723D01*
X196794627Y-115370549D01*
X196547886Y-115369155D01*
X196333174Y-115367525D01*
X196148299Y-115365643D01*
X195991067Y-115363493D01*
X195859287Y-115361060D01*
X195750766Y-115358327D01*
X195663313Y-115355279D01*
X195594735Y-115351899D01*
X195542839Y-115348172D01*
X195505434Y-115344082D01*
X195480327Y-115339612D01*
X195465327Y-115334748D01*
X195460554Y-115332583D01*
X195441016Y-115325472D01*
X195423099Y-115320279D01*
X195406730Y-115314742D01*
X195391836Y-115306599D01*
X195378346Y-115293590D01*
X195366186Y-115273452D01*
X195355283Y-115243924D01*
X195345566Y-115202744D01*
X195336961Y-115147650D01*
X195329395Y-115076381D01*
X195322797Y-114986675D01*
X195317093Y-114876270D01*
X195312211Y-114742906D01*
X195308078Y-114584319D01*
X195304622Y-114398249D01*
X195301769Y-114182434D01*
X195300833Y-114082497D01*
X196021046Y-114082497D01*
X196021836Y-114092067D01*
X196036323Y-114099823D01*
X196069055Y-114105955D01*
X196124578Y-114110652D01*
X196207441Y-114114106D01*
X196322191Y-114116506D01*
X196473375Y-114118041D01*
X196665540Y-114118903D01*
X196903234Y-114119280D01*
X197191004Y-114119364D01*
X198396441Y-114119364D01*
X198192635Y-113750654D01*
X198192635Y-108397536D01*
X198396441Y-108028826D01*
X196241764Y-108028826D01*
X196233974Y-110862428D01*
X196226184Y-113696031D01*
X196149801Y-113859161D01*
X196109530Y-113940016D01*
X196063929Y-114021013D01*
X196029492Y-114070827D01*
X196029406Y-114070923D01*
X196021046Y-114082497D01*
X195300833Y-114082497D01*
X195299448Y-113934612D01*
X195297586Y-113652521D01*
X195296109Y-113333901D01*
X195294946Y-112976488D01*
X195294024Y-112578023D01*
X195293269Y-112136242D01*
X195292610Y-111648884D01*
X195291974Y-111113688D01*
X195291288Y-110528393D01*
X195290480Y-109890735D01*
X195290375Y-109813539D01*
X195289474Y-109179923D01*
X195288612Y-108598404D01*
X195287853Y-108066720D01*
X195287261Y-107582608D01*
X195286900Y-107143806D01*
X195286833Y-106748052D01*
X195287125Y-106393081D01*
X195287840Y-106076633D01*
X195289040Y-105796443D01*
X195290790Y-105550250D01*
X195293153Y-105335790D01*
X195296195Y-105150802D01*
X195299977Y-104993022D01*
X195304564Y-104860188D01*
X195310020Y-104750036D01*
X195316409Y-104660305D01*
X195323794Y-104588732D01*
X195332239Y-104533053D01*
X195341808Y-104491007D01*
X195352565Y-104460331D01*
X195364574Y-104438761D01*
X195377898Y-104424036D01*
X195392601Y-104413893D01*
X195408748Y-104406068D01*
X195426401Y-104398300D01*
X195445624Y-104388325D01*
X195451249Y-104385146D01*
X195536363Y-104354379D01*
X195629538Y-104341734D01*
X195734571Y-104341738D01*
X195736321Y-104580712D01*
X195736765Y-104608212D01*
X195770149Y-104887749D01*
X195855177Y-105150767D01*
X195990666Y-105394482D01*
X196175436Y-105616107D01*
X196274589Y-105706499D01*
X196495362Y-105856323D01*
X196736246Y-105960803D01*
X196990226Y-106019882D01*
X197250286Y-106033505D01*
X197509410Y-106001616D01*
X197760583Y-105924158D01*
X197967059Y-105816568D01*
X198880891Y-105816568D01*
X199001064Y-105903027D01*
X199102698Y-105984286D01*
X199245909Y-106116826D01*
X199408345Y-106282936D01*
X199583856Y-106476286D01*
X199766291Y-106690547D01*
X199813272Y-106747844D01*
X199893259Y-106846116D01*
X199997814Y-106975045D01*
X200123472Y-107130327D01*
X200266770Y-107307660D01*
X200424243Y-107502739D01*
X200592429Y-107711263D01*
X200767862Y-107928927D01*
X200848328Y-108028826D01*
X200947080Y-108151429D01*
X201126619Y-108374465D01*
X201303014Y-108593733D01*
X201472802Y-108804928D01*
X201632519Y-109003749D01*
X201778701Y-109185890D01*
X201907885Y-109347051D01*
X202016606Y-109482926D01*
X202101401Y-109589214D01*
X202158806Y-109661610D01*
X202185357Y-109695812D01*
X202187548Y-109708665D01*
X202180259Y-109733110D01*
X202161370Y-109771569D01*
X202128996Y-109826768D01*
X202081250Y-109901437D01*
X202016248Y-109998302D01*
X201932105Y-110120092D01*
X201826934Y-110269536D01*
X201698850Y-110449360D01*
X201545968Y-110662293D01*
X201366401Y-110911063D01*
X201158265Y-111198398D01*
X200919675Y-111527026D01*
X200729568Y-111788610D01*
X200497633Y-112107503D01*
X200293615Y-112387552D01*
X200115144Y-112631866D01*
X199959845Y-112843552D01*
X199825347Y-113025720D01*
X199709276Y-113181476D01*
X199609260Y-113313929D01*
X199522927Y-113426187D01*
X199447904Y-113521357D01*
X199381818Y-113602549D01*
X199322297Y-113672870D01*
X199266969Y-113735428D01*
X199213459Y-113793331D01*
X199159397Y-113849688D01*
X199102409Y-113907606D01*
X198892398Y-114119364D01*
X200304129Y-114119421D01*
X201715861Y-114119478D01*
X201706990Y-113948380D01*
X201706560Y-113939783D01*
X201704876Y-113871383D01*
X201708068Y-113805848D01*
X201718271Y-113739586D01*
X201737621Y-113669009D01*
X201768252Y-113590526D01*
X201812300Y-113500547D01*
X201871900Y-113395484D01*
X201949188Y-113271746D01*
X202046298Y-113125743D01*
X202165366Y-112953886D01*
X202308528Y-112752584D01*
X202477918Y-112518249D01*
X202675672Y-112247289D01*
X202903926Y-111936116D01*
X203709625Y-110839229D01*
X203716723Y-112111038D01*
X203717352Y-112229672D01*
X203718462Y-112549218D01*
X203717957Y-112821013D01*
X203715245Y-113050201D01*
X203709730Y-113241926D01*
X203700819Y-113401331D01*
X203687918Y-113533559D01*
X203670433Y-113643754D01*
X203647770Y-113737059D01*
X203619334Y-113818618D01*
X203584533Y-113893575D01*
X203542771Y-113967074D01*
X203493454Y-114044256D01*
X203443880Y-114119364D01*
X206020254Y-114119364D01*
X205953704Y-114030600D01*
X205943282Y-114016558D01*
X205859957Y-113887856D01*
X205802517Y-113757753D01*
X205764798Y-113608674D01*
X205740638Y-113423047D01*
X205739975Y-113414955D01*
X205736469Y-113338389D01*
X205733303Y-113210641D01*
X205730492Y-113034633D01*
X205728049Y-112813283D01*
X205725987Y-112549510D01*
X205724322Y-112246233D01*
X205723065Y-111906371D01*
X205722231Y-111532844D01*
X205721834Y-111128570D01*
X205721887Y-110696468D01*
X205722405Y-110239459D01*
X205723401Y-109760460D01*
X205724455Y-109330797D01*
X205725583Y-108863100D01*
X205726694Y-108444649D01*
X205727926Y-108072515D01*
X205729420Y-107743764D01*
X205731315Y-107455465D01*
X205733750Y-107204687D01*
X205736864Y-106988499D01*
X205740797Y-106803967D01*
X205745689Y-106648161D01*
X205751679Y-106518149D01*
X205758906Y-106411000D01*
X205767509Y-106323781D01*
X205777629Y-106253561D01*
X205789404Y-106197409D01*
X205802974Y-106152392D01*
X205818479Y-106115580D01*
X205836057Y-106084039D01*
X205855848Y-106054840D01*
X205877992Y-106025050D01*
X205902628Y-105991737D01*
X205926457Y-105958354D01*
X205972513Y-105892349D01*
X206000101Y-105850708D01*
X206000767Y-105848964D01*
X205991134Y-105841089D01*
X205957141Y-105834519D01*
X205895004Y-105829151D01*
X205800941Y-105824886D01*
X205671169Y-105821623D01*
X205501907Y-105819260D01*
X205289370Y-105817697D01*
X205029778Y-105816834D01*
X204719346Y-105816568D01*
X203417995Y-105816568D01*
X203486580Y-105898078D01*
X203526330Y-105954060D01*
X203592495Y-106086056D01*
X203650477Y-106250223D01*
X203694731Y-106432326D01*
X203697552Y-106449614D01*
X203705944Y-106540750D01*
X203712300Y-106681599D01*
X203716635Y-106873136D01*
X203718967Y-107116336D01*
X203719313Y-107412175D01*
X203717689Y-107761628D01*
X203709625Y-108928301D01*
X202876614Y-107874889D01*
X202852755Y-107844715D01*
X202641511Y-107577291D01*
X202461166Y-107348266D01*
X202308848Y-107153748D01*
X202181689Y-106989841D01*
X202076816Y-106852653D01*
X201991362Y-106738287D01*
X201922454Y-106642852D01*
X201867224Y-106562451D01*
X201822802Y-106493192D01*
X201786316Y-106431180D01*
X201754897Y-106372522D01*
X201725675Y-106313322D01*
X201680721Y-106208532D01*
X201651681Y-106097989D01*
X201643957Y-105978752D01*
X201644733Y-105816568D01*
X198880891Y-105816568D01*
X197967059Y-105816568D01*
X197996788Y-105801077D01*
X198211011Y-105632316D01*
X198270563Y-105572820D01*
X198446579Y-105352530D01*
X198571477Y-105113465D01*
X198645925Y-104854082D01*
X198670592Y-104572840D01*
X198670592Y-104341729D01*
X202591196Y-104341729D01*
X202836137Y-104341719D01*
X203362339Y-104341647D01*
X203837687Y-104341596D01*
X204264811Y-104341667D01*
X204646338Y-104341966D01*
X204984897Y-104342597D01*
X205283117Y-104343662D01*
X205543626Y-104345267D01*
X205769054Y-104347515D01*
X205962028Y-104350510D01*
X206125177Y-104354356D01*
X206261131Y-104359156D01*
X206372517Y-104365016D01*
X206461964Y-104372038D01*
X206532101Y-104380327D01*
X206585556Y-104389986D01*
X206624958Y-104401120D01*
X206652936Y-104413832D01*
X206672119Y-104428227D01*
X206685134Y-104444407D01*
X206694611Y-104462478D01*
X206703178Y-104482543D01*
X206713463Y-104504706D01*
X206713648Y-104505068D01*
X206718642Y-104519576D01*
X206723223Y-104543870D01*
X206727408Y-104580190D01*
X206731214Y-104630780D01*
X206734660Y-104697881D01*
X206737762Y-104783735D01*
X206740538Y-104890584D01*
X206743006Y-105020670D01*
X206745181Y-105176234D01*
X206747083Y-105359519D01*
X206748729Y-105572767D01*
X206750135Y-105818219D01*
X206751319Y-106098118D01*
X206752299Y-106414705D01*
X206753091Y-106770222D01*
X206753715Y-107166911D01*
X206754185Y-107607015D01*
X206754521Y-108092774D01*
X206754740Y-108626431D01*
X206754858Y-109210228D01*
X206754893Y-109846407D01*
X206754895Y-109971385D01*
X206754955Y-110600934D01*
X206755049Y-111178544D01*
X206755104Y-111706474D01*
X206755049Y-112186983D01*
X206754815Y-112622329D01*
X206754328Y-113014770D01*
X206753518Y-113366565D01*
X206752314Y-113679973D01*
X206750645Y-113957251D01*
X206749176Y-114119364D01*
X206748440Y-114200659D01*
G36*
X206748440Y-114200659D02*
G01*
X206745628Y-114412454D01*
X206742138Y-114594895D01*
X206737898Y-114750241D01*
X206732838Y-114880750D01*
X206726887Y-114988680D01*
X206719973Y-115076291D01*
X206712026Y-115145839D01*
X206702973Y-115199585D01*
X206692745Y-115239785D01*
X206681270Y-115268700D01*
X206668477Y-115288586D01*
X206654295Y-115301703D01*
X206638653Y-115310309D01*
X206621480Y-115316663D01*
X206602705Y-115323022D01*
X206582256Y-115331646D01*
X206570750Y-115335968D01*
X206549645Y-115340687D01*
X206518284Y-115345011D01*
X206474451Y-115348957D01*
X206415927Y-115352542D01*
X206340493Y-115355784D01*
X206245930Y-115358700D01*
X206130020Y-115361307D01*
X205990545Y-115363622D01*
X205825287Y-115365663D01*
X205632026Y-115367447D01*
X205408545Y-115368992D01*
X205152625Y-115370315D01*
X204862047Y-115371433D01*
X204534593Y-115372364D01*
X204168044Y-115373124D01*
X203760183Y-115373732D01*
X203308790Y-115374204D01*
X202811648Y-115374559D01*
X202266537Y-115374812D01*
X201671240Y-115374982D01*
X201023537Y-115375086D01*
X200818282Y-115375106D01*
X200184636Y-115375119D01*
X199602749Y-115375040D01*
X199070428Y-115374851D01*
X198585481Y-115374538D01*
X198145715Y-115374085D01*
X197748940Y-115373475D01*
X197392961Y-115372693D01*
X197075587Y-115371723D01*
X196794627Y-115370549D01*
X196547886Y-115369155D01*
X196333174Y-115367525D01*
X196148299Y-115365643D01*
X195991067Y-115363493D01*
X195859287Y-115361060D01*
X195750766Y-115358327D01*
X195663313Y-115355279D01*
X195594735Y-115351899D01*
X195542839Y-115348172D01*
X195505434Y-115344082D01*
X195480327Y-115339612D01*
X195465327Y-115334748D01*
X195460554Y-115332583D01*
X195441016Y-115325472D01*
X195423099Y-115320279D01*
X195406730Y-115314742D01*
X195391836Y-115306599D01*
X195378346Y-115293590D01*
X195366186Y-115273452D01*
X195355283Y-115243924D01*
X195345566Y-115202744D01*
X195336961Y-115147650D01*
X195329395Y-115076381D01*
X195322797Y-114986675D01*
X195317093Y-114876270D01*
X195312211Y-114742906D01*
X195308078Y-114584319D01*
X195304622Y-114398249D01*
X195301769Y-114182434D01*
X195300833Y-114082497D01*
X196021046Y-114082497D01*
X196021836Y-114092067D01*
X196036323Y-114099823D01*
X196069055Y-114105955D01*
X196124578Y-114110652D01*
X196207441Y-114114106D01*
X196322191Y-114116506D01*
X196473375Y-114118041D01*
X196665540Y-114118903D01*
X196903234Y-114119280D01*
X197191004Y-114119364D01*
X198396441Y-114119364D01*
X198192635Y-113750654D01*
X198192635Y-108397536D01*
X198396441Y-108028826D01*
X196241764Y-108028826D01*
X196233974Y-110862428D01*
X196226184Y-113696031D01*
X196149801Y-113859161D01*
X196109530Y-113940016D01*
X196063929Y-114021013D01*
X196029492Y-114070827D01*
X196029406Y-114070923D01*
X196021046Y-114082497D01*
X195300833Y-114082497D01*
X195299448Y-113934612D01*
X195297586Y-113652521D01*
X195296109Y-113333901D01*
X195294946Y-112976488D01*
X195294024Y-112578023D01*
X195293269Y-112136242D01*
X195292610Y-111648884D01*
X195291974Y-111113688D01*
X195291288Y-110528393D01*
X195290480Y-109890735D01*
X195290375Y-109813539D01*
X195289474Y-109179923D01*
X195288612Y-108598404D01*
X195287853Y-108066720D01*
X195287261Y-107582608D01*
X195286900Y-107143806D01*
X195286833Y-106748052D01*
X195287125Y-106393081D01*
X195287840Y-106076633D01*
X195289040Y-105796443D01*
X195290790Y-105550250D01*
X195293153Y-105335790D01*
X195296195Y-105150802D01*
X195299977Y-104993022D01*
X195304564Y-104860188D01*
X195310020Y-104750036D01*
X195316409Y-104660305D01*
X195323794Y-104588732D01*
X195332239Y-104533053D01*
X195341808Y-104491007D01*
X195352565Y-104460331D01*
X195364574Y-104438761D01*
X195377898Y-104424036D01*
X195392601Y-104413893D01*
X195408748Y-104406068D01*
X195426401Y-104398300D01*
X195445624Y-104388325D01*
X195451249Y-104385146D01*
X195536363Y-104354379D01*
X195629538Y-104341734D01*
X195734571Y-104341738D01*
X195736321Y-104580712D01*
X195736765Y-104608212D01*
X195770149Y-104887749D01*
X195855177Y-105150767D01*
X195990666Y-105394482D01*
X196175436Y-105616107D01*
X196274589Y-105706499D01*
X196495362Y-105856323D01*
X196736246Y-105960803D01*
X196990226Y-106019882D01*
X197250286Y-106033505D01*
X197509410Y-106001616D01*
X197760583Y-105924158D01*
X197967059Y-105816568D01*
X198880891Y-105816568D01*
X199001064Y-105903027D01*
X199102698Y-105984286D01*
X199245909Y-106116826D01*
X199408345Y-106282936D01*
X199583856Y-106476286D01*
X199766291Y-106690547D01*
X199813272Y-106747844D01*
X199893259Y-106846116D01*
X199997814Y-106975045D01*
X200123472Y-107130327D01*
X200266770Y-107307660D01*
X200424243Y-107502739D01*
X200592429Y-107711263D01*
X200767862Y-107928927D01*
X200848328Y-108028826D01*
X200947080Y-108151429D01*
X201126619Y-108374465D01*
X201303014Y-108593733D01*
X201472802Y-108804928D01*
X201632519Y-109003749D01*
X201778701Y-109185890D01*
X201907885Y-109347051D01*
X202016606Y-109482926D01*
X202101401Y-109589214D01*
X202158806Y-109661610D01*
X202185357Y-109695812D01*
X202187548Y-109708665D01*
X202180259Y-109733110D01*
X202161370Y-109771569D01*
X202128996Y-109826768D01*
X202081250Y-109901437D01*
X202016248Y-109998302D01*
X201932105Y-110120092D01*
X201826934Y-110269536D01*
X201698850Y-110449360D01*
X201545968Y-110662293D01*
X201366401Y-110911063D01*
X201158265Y-111198398D01*
X200919675Y-111527026D01*
X200729568Y-111788610D01*
X200497633Y-112107503D01*
X200293615Y-112387552D01*
X200115144Y-112631866D01*
X199959845Y-112843552D01*
X199825347Y-113025720D01*
X199709276Y-113181476D01*
X199609260Y-113313929D01*
X199522927Y-113426187D01*
X199447904Y-113521357D01*
X199381818Y-113602549D01*
X199322297Y-113672870D01*
X199266969Y-113735428D01*
X199213459Y-113793331D01*
X199159397Y-113849688D01*
X199102409Y-113907606D01*
X198892398Y-114119364D01*
X200304129Y-114119421D01*
X201715861Y-114119478D01*
X201706990Y-113948380D01*
X201706560Y-113939783D01*
X201704876Y-113871383D01*
X201708068Y-113805848D01*
X201718271Y-113739586D01*
X201737621Y-113669009D01*
X201768252Y-113590526D01*
X201812300Y-113500547D01*
X201871900Y-113395484D01*
X201949188Y-113271746D01*
X202046298Y-113125743D01*
X202165366Y-112953886D01*
X202308528Y-112752584D01*
X202477918Y-112518249D01*
X202675672Y-112247289D01*
X202903926Y-111936116D01*
X203709625Y-110839229D01*
X203716723Y-112111038D01*
X203717352Y-112229672D01*
X203718462Y-112549218D01*
X203717957Y-112821013D01*
X203715245Y-113050201D01*
X203709730Y-113241926D01*
X203700819Y-113401331D01*
X203687918Y-113533559D01*
X203670433Y-113643754D01*
X203647770Y-113737059D01*
X203619334Y-113818618D01*
X203584533Y-113893575D01*
X203542771Y-113967074D01*
X203493454Y-114044256D01*
X203443880Y-114119364D01*
X206020254Y-114119364D01*
X205953704Y-114030600D01*
X205943282Y-114016558D01*
X205859957Y-113887856D01*
X205802517Y-113757753D01*
X205764798Y-113608674D01*
X205740638Y-113423047D01*
X205739975Y-113414955D01*
X205736469Y-113338389D01*
X205733303Y-113210641D01*
X205730492Y-113034633D01*
X205728049Y-112813283D01*
X205725987Y-112549510D01*
X205724322Y-112246233D01*
X205723065Y-111906371D01*
X205722231Y-111532844D01*
X205721834Y-111128570D01*
X205721887Y-110696468D01*
X205722405Y-110239459D01*
X205723401Y-109760460D01*
X205724455Y-109330797D01*
X205725583Y-108863100D01*
X205726694Y-108444649D01*
X205727926Y-108072515D01*
X205729420Y-107743764D01*
X205731315Y-107455465D01*
X205733750Y-107204687D01*
X205736864Y-106988499D01*
X205740797Y-106803967D01*
X205745689Y-106648161D01*
X205751679Y-106518149D01*
X205758906Y-106411000D01*
X205767509Y-106323781D01*
X205777629Y-106253561D01*
X205789404Y-106197409D01*
X205802974Y-106152392D01*
X205818479Y-106115580D01*
X205836057Y-106084039D01*
X205855848Y-106054840D01*
X205877992Y-106025050D01*
X205902628Y-105991737D01*
X205926457Y-105958354D01*
X205972513Y-105892349D01*
X206000101Y-105850708D01*
X206000767Y-105848964D01*
X205991134Y-105841089D01*
X205957141Y-105834519D01*
X205895004Y-105829151D01*
X205800941Y-105824886D01*
X205671169Y-105821623D01*
X205501907Y-105819260D01*
X205289370Y-105817697D01*
X205029778Y-105816834D01*
X204719346Y-105816568D01*
X203417995Y-105816568D01*
X203486580Y-105898078D01*
X203526330Y-105954060D01*
X203592495Y-106086056D01*
X203650477Y-106250223D01*
X203694731Y-106432326D01*
X203697552Y-106449614D01*
X203705944Y-106540750D01*
X203712300Y-106681599D01*
X203716635Y-106873136D01*
X203718967Y-107116336D01*
X203719313Y-107412175D01*
X203717689Y-107761628D01*
X203709625Y-108928301D01*
X202876614Y-107874889D01*
X202852755Y-107844715D01*
X202641511Y-107577291D01*
X202461166Y-107348266D01*
X202308848Y-107153748D01*
X202181689Y-106989841D01*
X202076816Y-106852653D01*
X201991362Y-106738287D01*
X201922454Y-106642852D01*
X201867224Y-106562451D01*
X201822802Y-106493192D01*
X201786316Y-106431180D01*
X201754897Y-106372522D01*
X201725675Y-106313322D01*
X201680721Y-106208532D01*
X201651681Y-106097989D01*
X201643957Y-105978752D01*
X201644733Y-105816568D01*
X198880891Y-105816568D01*
X197967059Y-105816568D01*
X197996788Y-105801077D01*
X198211011Y-105632316D01*
X198270563Y-105572820D01*
X198446579Y-105352530D01*
X198571477Y-105113465D01*
X198645925Y-104854082D01*
X198670592Y-104572840D01*
X198670592Y-104341729D01*
X202591196Y-104341729D01*
X202836137Y-104341719D01*
X203362339Y-104341647D01*
X203837687Y-104341596D01*
X204264811Y-104341667D01*
X204646338Y-104341966D01*
X204984897Y-104342597D01*
X205283117Y-104343662D01*
X205543626Y-104345267D01*
X205769054Y-104347515D01*
X205962028Y-104350510D01*
X206125177Y-104354356D01*
X206261131Y-104359156D01*
X206372517Y-104365016D01*
X206461964Y-104372038D01*
X206532101Y-104380327D01*
X206585556Y-104389986D01*
X206624958Y-104401120D01*
X206652936Y-104413832D01*
X206672119Y-104428227D01*
X206685134Y-104444407D01*
X206694611Y-104462478D01*
X206703178Y-104482543D01*
X206713463Y-104504706D01*
X206713648Y-104505068D01*
X206718642Y-104519576D01*
X206723223Y-104543870D01*
X206727408Y-104580190D01*
X206731214Y-104630780D01*
X206734660Y-104697881D01*
X206737762Y-104783735D01*
X206740538Y-104890584D01*
X206743006Y-105020670D01*
X206745181Y-105176234D01*
X206747083Y-105359519D01*
X206748729Y-105572767D01*
X206750135Y-105818219D01*
X206751319Y-106098118D01*
X206752299Y-106414705D01*
X206753091Y-106770222D01*
X206753715Y-107166911D01*
X206754185Y-107607015D01*
X206754521Y-108092774D01*
X206754740Y-108626431D01*
X206754858Y-109210228D01*
X206754893Y-109846407D01*
X206754895Y-109971385D01*
X206754955Y-110600934D01*
X206755049Y-111178544D01*
X206755104Y-111706474D01*
X206755049Y-112186983D01*
X206754815Y-112622329D01*
X206754328Y-113014770D01*
X206753518Y-113366565D01*
X206752314Y-113679973D01*
X206750645Y-113957251D01*
X206749176Y-114119364D01*
X206748440Y-114200659D01*
G37*
%TD*%
M02*
