%TF.GenerationSoftware,KiCad,Pcbnew,9.0.8*%
%TF.CreationDate,2026-05-04T15:45:16+08:00*%
%TF.ProjectId,Traffic Light Controller,54726166-6669-4632-904c-696768742043,rev?*%
%TF.SameCoordinates,Original*%
%TF.FileFunction,Paste,Top*%
%TF.FilePolarity,Positive*%
%FSLAX46Y46*%
G04 Gerber Fmt 4.6, Leading zero omitted, Abs format (unit mm)*
G04 Created by KiCad (PCBNEW 9.0.8) date 2026-05-04 15:45:16*
%MOMM*%
%LPD*%
G01*
G04 APERTURE LIST*
G04 Aperture macros list*
%AMRoundRect*
0 Rectangle with rounded corners*
0 $1 Rounding radius*
0 $2 $3 $4 $5 $6 $7 $8 $9 X,Y pos of 4 corners*
0 Add a 4 corners polygon primitive as box body*
4,1,4,$2,$3,$4,$5,$6,$7,$8,$9,$2,$3,0*
0 Add four circle primitives for the rounded corners*
1,1,$1+$1,$2,$3*
1,1,$1+$1,$4,$5*
1,1,$1+$1,$6,$7*
1,1,$1+$1,$8,$9*
0 Add four rect primitives between the rounded corners*
20,1,$1+$1,$2,$3,$4,$5,0*
20,1,$1+$1,$4,$5,$6,$7,0*
20,1,$1+$1,$6,$7,$8,$9,0*
20,1,$1+$1,$8,$9,$2,$3,0*%
G04 Aperture macros list end*
%ADD10RoundRect,0.250000X-1.050000X-0.550000X1.050000X-0.550000X1.050000X0.550000X-1.050000X0.550000X0*%
%ADD11RoundRect,0.225000X0.225000X0.375000X-0.225000X0.375000X-0.225000X-0.375000X0.225000X-0.375000X0*%
%ADD12RoundRect,0.250000X0.400000X0.625000X-0.400000X0.625000X-0.400000X-0.625000X0.400000X-0.625000X0*%
%ADD13RoundRect,0.250000X-0.625000X0.400000X-0.625000X-0.400000X0.625000X-0.400000X0.625000X0.400000X0*%
%ADD14RoundRect,0.250000X-0.400000X-0.625000X0.400000X-0.625000X0.400000X0.625000X-0.400000X0.625000X0*%
%ADD15RoundRect,0.250000X0.412500X0.650000X-0.412500X0.650000X-0.412500X-0.650000X0.412500X-0.650000X0*%
%ADD16RoundRect,0.250000X0.625000X-0.400000X0.625000X0.400000X-0.625000X0.400000X-0.625000X-0.400000X0*%
%ADD17RoundRect,0.250000X-1.500000X-0.550000X1.500000X-0.550000X1.500000X0.550000X-1.500000X0.550000X0*%
%ADD18RoundRect,0.375000X-0.375000X0.625000X-0.375000X-0.625000X0.375000X-0.625000X0.375000X0.625000X0*%
%ADD19RoundRect,0.500000X-1.400000X0.500000X-1.400000X-0.500000X1.400000X-0.500000X1.400000X0.500000X0*%
G04 APERTURE END LIST*
D10*
%TO.C,C1*%
X136250000Y-71250000D03*
X132650000Y-71250000D03*
%TD*%
D11*
%TO.C,D11*%
X201650000Y-95000000D03*
X198350000Y-95000000D03*
%TD*%
D12*
%TO.C,R31*%
X186300000Y-91250000D03*
X183200000Y-91250000D03*
%TD*%
D13*
%TO.C,R2*%
X203750000Y-43450000D03*
X203750000Y-46550000D03*
%TD*%
D12*
%TO.C,R23*%
X220350000Y-53500000D03*
X217250000Y-53500000D03*
%TD*%
D13*
%TO.C,R6*%
X195750000Y-43450000D03*
X195750000Y-46550000D03*
%TD*%
D14*
%TO.C,R30*%
X198450000Y-87500000D03*
X201550000Y-87500000D03*
%TD*%
%TO.C,R26*%
X118200000Y-105500000D03*
X121300000Y-105500000D03*
%TD*%
D13*
%TO.C,R9*%
X143000000Y-84950000D03*
X143000000Y-88050000D03*
%TD*%
D11*
%TO.C,D13*%
X186300000Y-95000000D03*
X183000000Y-95000000D03*
%TD*%
D12*
%TO.C,R28*%
X201550000Y-91250000D03*
X198450000Y-91250000D03*
%TD*%
D11*
%TO.C,D12*%
X218377500Y-95000000D03*
X215077500Y-95000000D03*
%TD*%
D14*
%TO.C,R17*%
X175000000Y-48500000D03*
X178100000Y-48500000D03*
%TD*%
D13*
%TO.C,R1*%
X199750000Y-43450000D03*
X199750000Y-46550000D03*
%TD*%
D14*
%TO.C,R25*%
X118200000Y-95250000D03*
X121300000Y-95250000D03*
%TD*%
D15*
%TO.C,C5*%
X186312500Y-98750000D03*
X183187500Y-98750000D03*
%TD*%
D16*
%TO.C,R16*%
X147000000Y-115550000D03*
X147000000Y-112450000D03*
%TD*%
D13*
%TO.C,R7*%
X191750000Y-43450000D03*
X191750000Y-46550000D03*
%TD*%
D16*
%TO.C,R12*%
X139000000Y-115550000D03*
X139000000Y-112450000D03*
%TD*%
D12*
%TO.C,R29*%
X218300000Y-91250000D03*
X215200000Y-91250000D03*
%TD*%
%TO.C,R20*%
X164300000Y-90250000D03*
X161200000Y-90250000D03*
%TD*%
D13*
%TO.C,R14*%
X139000000Y-84950000D03*
X139000000Y-88050000D03*
%TD*%
%TO.C,R15*%
X135000000Y-84950000D03*
X135000000Y-88050000D03*
%TD*%
D14*
%TO.C,R27*%
X215200000Y-87500000D03*
X218300000Y-87500000D03*
%TD*%
%TO.C,R18*%
X175000000Y-58500000D03*
X178100000Y-58500000D03*
%TD*%
D16*
%TO.C,R5*%
X191750000Y-73850000D03*
X191750000Y-70750000D03*
%TD*%
%TO.C,R13*%
X135000000Y-115550000D03*
X135000000Y-112450000D03*
%TD*%
%TO.C,R11*%
X143000000Y-115550000D03*
X143000000Y-112450000D03*
%TD*%
%TO.C,R4*%
X195750000Y-73800000D03*
X195750000Y-70700000D03*
%TD*%
D14*
%TO.C,R19*%
X175000000Y-68750000D03*
X178100000Y-68750000D03*
%TD*%
D12*
%TO.C,R21*%
X164300000Y-100250000D03*
X161200000Y-100250000D03*
%TD*%
D14*
%TO.C,R32*%
X183250000Y-87500000D03*
X186350000Y-87500000D03*
%TD*%
D12*
%TO.C,R22*%
X164300000Y-110500000D03*
X161200000Y-110500000D03*
%TD*%
D16*
%TO.C,R3*%
X199500000Y-73800000D03*
X199500000Y-70700000D03*
%TD*%
D15*
%TO.C,C2*%
X201562500Y-98750000D03*
X198437500Y-98750000D03*
%TD*%
D13*
%TO.C,R10*%
X147250000Y-84950000D03*
X147250000Y-88050000D03*
%TD*%
D17*
%TO.C,C4*%
X131850000Y-62250000D03*
X137250000Y-62250000D03*
%TD*%
D16*
%TO.C,R8*%
X203500000Y-73800000D03*
X203500000Y-70700000D03*
%TD*%
D15*
%TO.C,C3*%
X218312500Y-98750000D03*
X215187500Y-98750000D03*
%TD*%
D18*
%TO.C,U3*%
X126850000Y-63500000D03*
X124550000Y-63500000D03*
X122250000Y-63500000D03*
D19*
X124550000Y-69800000D03*
%TD*%
D12*
%TO.C,R24*%
X220300000Y-63750000D03*
X217200000Y-63750000D03*
%TD*%
M02*
